<svg width="47" height="51" viewBox="0 0 47 51" fill="none" xmlns="http://www.w3.org/2000/svg">
<path fill-rule="evenodd" clip-rule="evenodd" d="M15.5001 5.9982C15.5001 5.99798 15.5001 5.9982 15.5 5.99899L15.4998 5.99911L15.5001 5.9982ZM15.5 16.9231V6H15.5019H15.5058H15.5096H15.5135H15.5173H15.5212H15.5251H15.5289H15.5328H15.5367H15.5407H15.5446H15.5485H15.5525H15.5564H15.5604H15.5644H15.5684H15.5723H15.5764H15.5804H15.5844H15.5884H15.5925H15.5965H15.6006H15.6047H15.6088H15.6128H15.617H15.6211H15.6252H15.6293H15.6335H15.6376H15.6418H15.646H15.6502H15.6544H15.6586H15.6628H15.667H15.6712H15.6755H15.6797H15.684H15.6883H15.6926H15.6969H15.7012H15.7055H15.7098H15.7142H15.7185H15.7229H15.7273H15.7316H15.736H15.7404H15.7448H15.7493H15.7537H15.7581H15.7626H15.7671H15.7715H15.776H15.7805H15.785H15.7895H15.7941H15.7986H15.8032H15.8077H15.8123H15.8169H15.8215H15.8261H15.8307H15.8353H15.8399H15.8446H15.8493H15.8539H15.8586H15.8633H15.868H15.8727H15.8774H15.8821H15.8869H15.8916H15.8964H15.9012H15.906H15.9108H15.9156H15.9204H15.9252H15.9301H15.9349H15.9398H15.9447H15.9495H15.9544H15.9593H15.9643H15.9692H15.9741H15.9791H15.984H15.989H15.994H15.999H16.004H16.009H16.014H16.0191H16.0241H16.0292H16.0343H16.0393H16.0444H16.0496H16.0547H16.0598H16.0649H16.0701H16.0753H16.0804H16.0856H16.0908H16.096H16.1012H16.1065H16.1117H16.117H16.1222H16.1275H16.1328H16.1381H16.1434H16.1487H16.1541H16.1594H16.1648H16.1701H16.1755H16.1809H16.1863H16.1917H16.1972H16.2026H16.208H16.2135H16.219H16.2245H16.23H16.2355H16.241H16.2465H16.2521H16.2576H16.2632H16.2688H16.2743H16.2799H16.2856H16.2912H16.2968H16.3025H16.3081H16.3138H16.3195H16.3252H16.3309H16.3366H16.3423H16.3481H16.3538H16.3596H16.3654H16.3712H16.377H16.3828H16.3886H16.3945H16.4003H16.4062H16.4121H16.4179H16.4238H16.4298H16.4357H16.4416H16.4476H16.4535H16.4595H16.4655H16.4715H16.4775H16.4835H16.4895H16.4956H16.5016H16.5077H16.5138H16.5199H16.526H16.5321H16.5382H16.5444H16.5505H16.5567H16.5629H16.5691H16.5753H16.5815H16.5877H16.594H16.6002H16.6065H16.6128H16.6191H16.6254H16.6317H16.638H16.6444H16.6507H16.6571H16.6635H16.6699H16.6763H16.6827H16.6891H16.6956H16.702H16.7085H16.715H16.7215H16.728H16.7345H16.741H16.7476H16.7541H16.7607H16.7673H16.7739H16.7805H16.7871H16.7937H16.8004H16.807H16.8137H16.8204H16.8271H16.8338H16.8405H16.8473H16.854H16.8608H16.8676H16.8743H16.8811H16.888H16.8948H16.9016H16.9085H16.9153H16.9222H16.9291H16.936H16.9429H16.9499H16.9568H16.9638H16.9708H16.9777H16.9847H16.9917H16.9988H17.0058H17.0129H17.0199H17.027H17.0341H17.0412H17.0483H17.0554H17.0626H17.0697H17.0769H17.0841H17.0913H17.0985H17.1057H17.1129H17.1202H17.1275H17.1347H17.142H17.1493H17.1566H17.164H17.1713H17.1787H17.186H17.1934H17.2008H17.2082H17.2157H17.2231H17.2306H17.238H17.2455H17.253H17.2605H17.268H17.2756H17.2831H17.2907H17.2982H17.3058H17.3134H17.321H17.3287H17.3363H17.344H17.3516H17.3593H17.367H17.3747H17.3825H17.3902H17.398H17.4057H17.4135H17.4213H17.4291H17.4369H17.4448H17.4526H17.4605H17.4684H17.4763H17.4842H17.4921H17.5H17.508H17.5159H17.5239H17.5319H17.5399H17.5479H17.556H17.564H17.5721H17.5801H17.5882H17.5963H17.6044H17.6126H17.6207H17.6289H17.6371H17.6452H17.6534H17.6617H17.6699H17.6781H17.6864H17.6947H17.703H17.7113H17.7196H17.7279H17.7363H17.7446H17.753H17.7614H17.7698H17.7782H17.7866H17.7951H17.8036H17.812H17.8205H17.829H17.8375H17.8461H17.8546H17.8632H17.8718H17.8804H17.889H17.8976H17.9062H17.9149H17.9235H17.9322H17.9409H17.9496H17.9583H17.9671H17.9758H17.9846H17.9934H18.0022H18.011H18.0198H18.0287H18.0375H18.0464H18.0553H18.0642H18.0731H18.082H18.091H18.0999H18.1089H18.1179H18.1269H18.1359H18.145H18.154H18.1631H18.1722H18.1812H18.1904H18.1995H18.2086H18.2178H18.2269H18.2361H18.2453H18.2545H18.2638H18.273H18.2823H18.2916H18.3008H18.3102H18.3195H18.3288H18.3382H18.3475H18.3569H18.3663H18.3757H18.3851H18.3946H18.4041H18.4135H18.423H18.4325H18.442H18.4516H18.4611H18.4707H18.4803H18.4899H18.4995H18.5091H18.5187H18.5284H18.5381H18.5478H18.5575H18.5672H18.5769H18.5867H18.5964H18.6062H18.616H18.6258H18.6357H18.6455H18.6554H18.6653H18.6751H18.6851H18.695H18.7049H18.7149H18.7248H18.7348H18.7448H18.7548H18.7649H18.7749H18.785H18.7951H18.8052H18.8153H18.8254H18.8355H18.8457H18.8559H18.8661H18.8763H18.8865H18.8967H18.907H18.9173H18.9275H18.9378H18.9482H18.9585H18.9689H18.9792H18.9896H19H19.0033H19.0067H19.01H19.0133H19.0167H19.02H19.0233H19.0266H19.0299H19.0333H19.0366H19.0399H19.0432H19.0465H19.0498H19.0531H19.0565H19.0598H19.0631H19.0664H19.0697H19.073H19.0763H19.0796H19.0829H19.0861H19.0894H19.0927H19.096H19.0993H19.1026H19.1059H19.1091H19.1124H19.1157H19.119H19.1223H19.1255H19.1288H19.1321H19.1353H19.1386H19.1419H19.1451H19.1484H19.1517H19.1549H19.1582H19.1614H19.1647H19.1679H19.1712H19.1744H19.1777H19.1809H19.1842H19.1874H19.1907H19.1939H19.1971H19.2004H19.2036H19.2068H19.2101H19.2133H19.2165H19.2197H19.223H19.2262H19.2294H19.2326H19.2358H19.2391H19.2423H19.2455H19.2487H19.2519H19.2551H19.2583H19.2615H19.2647H19.2679H19.2711H19.2743H19.2775H19.2807H19.2839H19.2871H19.2903H19.2935H19.2967H19.2999H19.3031H19.3062H19.3094H19.3126H19.3158H19.3189H19.3221H19.3253H19.3285H19.3316H19.3348H19.338H19.3411H19.3443H19.3475H19.3506H19.3538H19.3569H19.3601H19.3632H19.3664H19.3695H19.3727H19.3758H19.379H19.3821H19.3853H19.3884H19.3916H19.3947H19.3978H19.401H19.4041H19.4072H19.4104H19.4135H19.4166H19.4197H19.4229H19.426H19.4291H19.4322H19.4353H19.4384H19.4416H19.4447H19.4478H19.4509H19.454H19.4571H19.4602H19.4633H19.4664H19.4695H19.4726H19.4757H19.4788H19.4819H19.485H19.4881H19.4912H19.4942H19.4973H19.5004H19.5035H19.5066H19.5097H19.5127H19.5158H19.5189H19.522H19.525H19.5281H19.5312H19.5342H19.5373H19.5404H19.5434H19.5465H19.5495H19.5526H19.5556H19.5587H19.5618H19.5648H19.5678H19.5709H19.5739H19.577H19.58H19.5831H19.5861H19.5891H19.5922H19.5952H19.5982H19.6013H19.6043H19.6073H19.6104H19.6134H19.6164H19.6194H19.6225H19.6255H19.6285H19.6315H19.6345H19.6375H19.6405H19.6436H19.6466H19.6496H19.6526H19.6556H19.6586H19.6616H19.6646H19.6676H19.6706H19.6736H19.6766H19.6795H19.6825H19.6855H19.6885H19.6915H19.6945H19.6975H19.7004H19.7034H19.7064H19.7094H19.7123H19.7153H19.7183H19.7213H19.7242H19.7272H19.7301H19.7331H19.7361H19.739H19.742H19.7449H19.7479H19.7509H19.7538H19.7568H19.7597H19.7627H19.7656H19.7685H19.7715H19.7744H19.7774H19.7803H19.7832H19.7862H19.7891H19.792H19.795H19.7979H19.8008H19.8037H19.8067H19.8096H19.8125H19.8154H19.8184H19.8213H19.8242H19.8271H19.83H19.8329H19.8358H19.8387H19.8416H19.8445H19.8474H19.8503H19.8532H19.8561H19.859H19.8619H19.8648H19.8677H19.8706H19.8735H19.8764H19.8793H19.8822H19.885H19.8879H19.8908H19.8937H19.8966H19.8994H19.9023H19.9052H19.908H19.9109H19.9138H19.9166H19.9195H19.9224H19.9252H19.9281H19.9309H19.9338H19.9367H19.9395H19.9424H19.9452H19.9481H19.9509H19.9538H19.9566H19.9594H19.9623H19.9651H19.968H19.9708H19.9736H19.9765H19.9793H19.9821H19.985H19.9878H19.9906H19.9934H19.9963H19.9991H20.0019H20.0047H20.0075H20.0104H20.0132H20.016H20.0188H20.0216H20.0244H20.0272H20.03H20.0328H20.0356H20.0384H20.0412H20.044H20.0468H20.0496H20.0524H20.0552H20.058H20.0608H20.0636H20.0663H20.0691H20.0719H20.0747H20.0775H20.0802H20.083H20.0858H20.0886H20.0913H20.0941H20.0969H20.0996H20.1024H20.1052H20.1079H20.1107H20.1135H20.1162H20.119H20.1217H20.1245H20.1272H20.13H20.1327H20.1355H20.1382H20.141H20.1437H20.1465H20.1492H20.1519H20.1547H20.1574H20.1601H20.1629H20.1656H20.1683H20.1711H20.1738H20.1765H20.1792H20.182H20.1847H20.1874H20.1901H20.1928H20.1956H20.1983H20.201H20.2037H20.2064H20.2091H20.2118H20.2145H20.2172H20.2199H20.2226H20.2253H20.228H20.2307H20.2334H20.2361H20.2388H20.2415H20.2442H20.2469H20.2495H20.2522H20.2549H20.2576H20.2603H20.263H20.2656H20.2683H20.271H20.2736H20.2763H20.279H20.2817H20.2843H20.287H20.2896H20.2923H20.295H20.2976H20.3003H20.3029H20.3056H20.3082H20.3109H20.3135H20.3162H20.3188H20.3215H20.3241H20.3268H20.3294H20.3321H20.3347H20.3373H20.34H20.3426H20.3452H20.3479H20.3505H20.3531H20.3557H20.3584H20.361H20.3636H20.3662H20.3689H20.3715H20.3741H20.3767H20.3793H20.3819H20.3845H20.3872H20.3898H20.3924H20.395H20.3976H20.4002H20.4028H20.4054H20.408H20.4106H20.4132H20.4158H20.4183H20.4209H20.4235H20.4261H20.4287H20.4313H20.4339H20.4364H20.439H20.4416H20.4442H20.4468H20.4493H20.4519H20.4545H20.457H20.4596H20.4622H20.4647H20.4673H20.4699H20.4724H20.475H20.4776H20.4801H20.4827H20.4852H20.4878H20.4903H20.4929H20.4954H20.498H20.5005C21.6049 6 22.5 6.89521 22.5 8V17.5116C21.6209 17.2205 20.3871 16.9231 19 16.9231H18.9854H18.9707H18.9561H18.9415H18.9269H18.9123H18.8977H18.8832H18.8686H18.8541H18.8396H18.8251H18.8106H18.7961H18.7816H18.7671H18.7527H18.7382H18.7238H18.7094H18.695H18.6806H18.6662H18.6519H18.6375H18.6232H18.6089H18.5946H18.5803H18.566H18.5517H18.5375H18.5232H18.509H18.4948H18.4806H18.4664H18.4522H18.4381H18.4239H18.4098H18.3957H18.3816H18.3675H18.3534H18.3394H18.3253H18.3113H18.2973H18.2833H18.2693H18.2553H18.2414H18.2274H18.2135H18.1996H18.1857H18.1718H18.158H18.1441H18.1303H18.1165H18.1027H18.0889H18.0751H18.0613H18.0476H18.0339H18.0202H18.0065H17.9928H17.9791H17.9655H17.9519H17.9383H17.9247H17.9111H17.8975H17.884H17.8705H17.857H17.8435H17.83H17.8165H17.8031H17.7897H17.7763H17.7629H17.7495H17.7361H17.7228H17.7095H17.6962H17.6829H17.6696H17.6564H17.6431H17.6299H17.6167H17.6036H17.5904H17.5773H17.5641H17.551H17.5379H17.5249H17.5118H17.4988H17.4858H17.4728H17.4598H17.4469H17.4339H17.421H17.4081H17.3952H17.3824H17.3695H17.3567H17.3439H17.3311H17.3184H17.3056H17.2929H17.2802H17.2675H17.2548H17.2422H17.2296H17.217H17.2044H17.1918H17.1793H17.1667H17.1542H17.1418H17.1293H17.1169H17.1044H17.092H17.0797H17.0673H17.055H17.0426H17.0304H17.0181H17.0058H16.9936H16.9814H16.9692H16.957H16.9449H16.9328H16.9207H16.9086H16.8965H16.8845H16.8725H16.8605H16.8485H16.8366H16.8246H16.8127H16.8009H16.789H16.7772H16.7653H16.7536H16.7418H16.73H16.7183H16.7066H16.6949H16.6833H16.6717H16.66H16.6485H16.6369H16.6254H16.6139H16.6024H16.5909H16.5795H16.568H16.5566H16.5453H16.5339H16.5226H16.5113H16.5H16.4888H16.4775H16.4663H16.4552H16.444H16.4329H16.4218H16.4107H16.3996H16.3886H16.3776H16.3666H16.3557H16.3447H16.3338H16.3229H16.3121H16.3013H16.2904H16.2797H16.2689H16.2582H16.2475H16.2368H16.2262H16.2155H16.2049H16.1944H16.1838H16.1733H16.1628H16.1523H16.1419H16.1315H16.1211H16.1107H16.1004H16.0901H16.0798H16.0695H16.0593H16.0491H16.0389H16.0288H16.0187H16.0086H15.9985H15.9885H15.9784H15.9685H15.9585H15.9486H15.9387H15.9288H15.919H15.9091H15.8993H15.8896H15.8798H15.8701H15.8605H15.8508H15.8412H15.8316H15.822H15.8125H15.803H15.7935H15.7841H15.7746H15.7653H15.7559H15.7466H15.7372H15.728H15.7187H15.7095H15.7003H15.6912H15.682H15.6729H15.6639H15.6548H15.6458H15.6368H15.6279H15.619H15.6101H15.6012H15.5924H15.5836H15.5748H15.5661H15.5574H15.5487H15.54H15.5314H15.5228H15.5143H15.5057H15.5ZM23.0265 19.8808L23.0263 19.8807C23.0261 19.8806 23.0259 19.8805 23.5 19L23.0259 19.8805L23.0177 19.8762C23.0076 19.871 22.9903 19.8622 22.966 19.8502C22.9176 19.8262 22.8417 19.7898 22.7414 19.7451C22.5404 19.6556 22.2433 19.5335 21.873 19.4108C21.1272 19.1637 20.1118 18.9231 19 18.9231H18.9854H18.9707H18.9561H18.9415H18.9269H18.9123H18.8977H18.8832H18.8686H18.8541H18.8396H18.8251H18.8106H18.7961H18.7816H18.7671H18.7527H18.7382H18.7238H18.7094H18.695H18.6806H18.6662H18.6519H18.6375H18.6232H18.6089H18.5946H18.5803H18.566H18.5517H18.5375H18.5232H18.509H18.4948H18.4806H18.4664H18.4522H18.4381H18.4239H18.4098H18.3957H18.3816H18.3675H18.3534H18.3394H18.3253H18.3113H18.2973H18.2833H18.2693H18.2553H18.2414H18.2274H18.2135H18.1996H18.1857H18.1718H18.158H18.1441H18.1303H18.1165H18.1027H18.0889H18.0751H18.0613H18.0476H18.0339H18.0202H18.0065H17.9928H17.9791H17.9655H17.9519H17.9383H17.9247H17.9111H17.8975H17.884H17.8705H17.857H17.8435H17.83H17.8165H17.8031H17.7897H17.7763H17.7629H17.7495H17.7361H17.7228H17.7095H17.6962H17.6829H17.6696H17.6564H17.6431H17.6299H17.6167H17.6036H17.5904H17.5773H17.5641H17.551H17.5379H17.5249H17.5118H17.4988H17.4858H17.4728H17.4598H17.4469H17.4339H17.421H17.4081H17.3952H17.3824H17.3695H17.3567H17.3439H17.3311H17.3184H17.3056H17.2929H17.2802H17.2675H17.2548H17.2422H17.2296H17.217H17.2044H17.1918H17.1793H17.1667H17.1542H17.1418H17.1293H17.1169H17.1044H17.092H17.0797H17.0673H17.055H17.0426H17.0304H17.0181H17.0058H16.9936H16.9814H16.9692H16.957H16.9449H16.9328H16.9207H16.9086H16.8965H16.8845H16.8725H16.8605H16.8485H16.8366H16.8246H16.8127H16.8009H16.789H16.7772H16.7653H16.7536H16.7418H16.73H16.7183H16.7066H16.6949H16.6833H16.6717H16.66H16.6485H16.6369H16.6254H16.6139H16.6024H16.5909H16.5795H16.568H16.5566H16.5453H16.5339H16.5226H16.5113H16.5H16.4888H16.4775H16.4663H16.4552H16.444H16.4329H16.4218H16.4107H16.3996H16.3886H16.3776H16.3666H16.3557H16.3447H16.3338H16.3229H16.3121H16.3013H16.2904H16.2797H16.2689H16.2582H16.2475H16.2368H16.2262H16.2155H16.2049H16.1944H16.1838H16.1733H16.1628H16.1523H16.1419H16.1315H16.1211H16.1107H16.1004H16.0901H16.0798H16.0695H16.0593H16.0491H16.0389H16.0288H16.0187H16.0086H15.9985H15.9885H15.9784H15.9685H15.9585H15.9486H15.9387H15.9288H15.919H15.9091H15.8993H15.8896H15.8798H15.8701H15.8605H15.8508H15.8412H15.8316H15.822H15.8125H15.803H15.7935H15.7841H15.7746H15.7653H15.7559H15.7466H15.7372H15.728H15.7187H15.7095H15.7003H15.6912H15.682H15.6729H15.6639H15.6548H15.6458H15.6368H15.6279H15.619H15.6101H15.6012H15.5924H15.5836H15.5748H15.5661H15.5574H15.5487H15.54H15.5314H15.5228H15.5143H15.5057H15.4973H15.4888H15.4804H15.472H15.4636H15.4552H15.4469H15.4387H15.4304H15.4222H15.414H15.4059H15.3978H15.3897H15.3816H15.3736H15.3656H15.3576H15.3497H15.3418H15.334H15.3261H15.3183H15.3106H15.3028H15.2951H15.2875H15.2798H15.2722H15.2646H15.2571H15.2496H15.2421H15.2347H15.2273H15.2199H15.2126H15.2053H15.198H15.1908H15.1836H15.1764H15.1693H15.1622H15.1551H15.1481H15.1411H15.1341H15.1272H15.1203H15.1134H15.1066H15.0998H15.093H15.0863H15.0796H15.0729H15.0663H15.0597H15.0532H15.0466H15.0402H15.0337H15.0273H15.0209H15.0146H15.0083H15.002H14.9958H14.9896H14.9834H14.9773H14.9712H14.9651H14.9591H14.9531H14.9472H14.9412H14.9354H14.9295H14.9237H14.9179H14.9122H14.9065H14.9009H14.8952H14.8896H14.8841H14.8786H14.8731H14.8677H14.8623H14.8569H14.8516H14.8463H14.841H14.8358H14.8306H14.8255H14.8204H14.8153H14.8103H14.8053H14.8003H14.7954H14.7905H14.7857H14.7809H14.7761H14.7714H14.7667H14.7621H14.7575H14.7529H14.7484H14.7439H14.7394H14.735H14.7306H14.7263H14.722H14.7177H14.7135H14.7093H14.7052H14.701H14.697H14.693H14.689H14.685H14.6811H14.6772H14.6734H14.6696H14.6659H14.6622H14.6585H14.6549H14.6513H14.6477H14.6442H14.6408H14.6373H14.6339H14.6306H14.6273H14.624H14.6208H14.6176H14.6145H14.6114H14.6083H14.6053H14.6023H14.5994H14.5965H14.5936H14.5908H14.588H14.5853H14.5826H14.58H14.5774H14.5748H14.5723H14.5698H14.5674H14.565H14.5626H14.5603H14.558H14.5558H14.5536H14.5515H14.5494H14.5473H14.5453H14.5434H14.5414H14.5395H14.5377H14.5359H14.5342H14.5324H14.5308H14.5291H14.5276H14.526H14.5245H14.5231H14.5217H14.5203H14.519H14.5177H14.5165H14.5153H14.5141H14.513H14.512H14.511H14.51H14.5091H14.5082H14.5074H14.5066H14.5058H14.5051H14.5045H14.5038H14.5033H14.5028H14.5023H14.5018H14.5015H14.5011H14.5008H14.5006H14.5004H14.5002H14.5001H14.5L14.5 17.9231V18.9231C13.9477 18.9231 13.5 18.4754 13.5 17.9231V6C13.5 4.89787 14.3911 4 15.4981 4H15.5019H15.5058H15.5096H15.5135H15.5173H15.5212H15.5251H15.5289H15.5328H15.5367H15.5407H15.5446H15.5485H15.5525H15.5564H15.5604H15.5644H15.5684H15.5723H15.5764H15.5804H15.5844H15.5884H15.5925H15.5965H15.6006H15.6047H15.6088H15.6128H15.617H15.6211H15.6252H15.6293H15.6335H15.6376H15.6418H15.646H15.6502H15.6544H15.6586H15.6628H15.667H15.6712H15.6755H15.6797H15.684H15.6883H15.6926H15.6969H15.7012H15.7055H15.7098H15.7142H15.7185H15.7229H15.7273H15.7316H15.736H15.7404H15.7448H15.7493H15.7537H15.7581H15.7626H15.7671H15.7715H15.776H15.7805H15.785H15.7895H15.7941H15.7986H15.8032H15.8077H15.8123H15.8169H15.8215H15.8261H15.8307H15.8353H15.8399H15.8446H15.8493H15.8539H15.8586H15.8633H15.868H15.8727H15.8774H15.8821H15.8869H15.8916H15.8964H15.9012H15.906H15.9108H15.9156H15.9204H15.9252H15.9301H15.9349H15.9398H15.9447H15.9495H15.9544H15.9593H15.9643H15.9692H15.9741H15.9791H15.984H15.989H15.994H15.999H16.004H16.009H16.014H16.0191H16.0241H16.0292H16.0343H16.0393H16.0444H16.0496H16.0547H16.0598H16.0649H16.0701H16.0753H16.0804H16.0856H16.0908H16.096H16.1012H16.1065H16.1117H16.117H16.1222H16.1275H16.1328H16.1381H16.1434H16.1487H16.1541H16.1594H16.1648H16.1701H16.1755H16.1809H16.1863H16.1917H16.1972H16.2026H16.208H16.2135H16.219H16.2245H16.23H16.2355H16.241H16.2465H16.2521H16.2576H16.2632H16.2688H16.2743H16.2799H16.2856H16.2912H16.2968H16.3025H16.3081H16.3138H16.3195H16.3252H16.3309H16.3366H16.3423H16.3481H16.3538H16.3596H16.3654H16.3712H16.377H16.3828H16.3886H16.3945H16.4003H16.4062H16.4121H16.4179H16.4238H16.4298H16.4357H16.4416H16.4476H16.4535H16.4595H16.4655H16.4715H16.4775H16.4835H16.4895H16.4956H16.5016H16.5077H16.5138H16.5199H16.526H16.5321H16.5382H16.5444H16.5505H16.5567H16.5629H16.5691H16.5753H16.5815H16.5877H16.594H16.6002H16.6065H16.6128H16.6191H16.6254H16.6317H16.638H16.6444H16.6507H16.6571H16.6635H16.6699H16.6763H16.6827H16.6891H16.6956H16.702H16.7085H16.715H16.7215H16.728H16.7345H16.741H16.7476H16.7541H16.7607H16.7673H16.7739H16.7805H16.7871H16.7937H16.8004H16.807H16.8137H16.8204H16.8271H16.8338H16.8405H16.8473H16.854H16.8608H16.8676H16.8743H16.8811H16.888H16.8948H16.9016H16.9085H16.9153H16.9222H16.9291H16.936H16.9429H16.9499H16.9568H16.9638H16.9708H16.9777H16.9847H16.9917H16.9988H17.0058H17.0129H17.0199H17.027H17.0341H17.0412H17.0483H17.0554H17.0626H17.0697H17.0769H17.0841H17.0913H17.0985H17.1057H17.1129H17.1202H17.1275H17.1347H17.142H17.1493H17.1566H17.164H17.1713H17.1787H17.186H17.1934H17.2008H17.2082H17.2157H17.2231H17.2306H17.238H17.2455H17.253H17.2605H17.268H17.2756H17.2831H17.2907H17.2982H17.3058H17.3134H17.321H17.3287H17.3363H17.344H17.3516H17.3593H17.367H17.3747H17.3825H17.3902H17.398H17.4057H17.4135H17.4213H17.4291H17.4369H17.4448H17.4526H17.4605H17.4684H17.4763H17.4842H17.4921H17.5H17.508H17.5159H17.5239H17.5319H17.5399H17.5479H17.556H17.564H17.5721H17.5801H17.5882H17.5963H17.6044H17.6126H17.6207H17.6289H17.6371H17.6452H17.6534H17.6617H17.6699H17.6781H17.6864H17.6947H17.703H17.7113H17.7196H17.7279H17.7363H17.7446H17.753H17.7614H17.7698H17.7782H17.7866H17.7951H17.8036H17.812H17.8205H17.829H17.8375H17.8461H17.8546H17.8632H17.8718H17.8804H17.889H17.8976H17.9062H17.9149H17.9235H17.9322H17.9409H17.9496H17.9583H17.9671H17.9758H17.9846H17.9934H18.0022H18.011H18.0198H18.0287H18.0375H18.0464H18.0553H18.0642H18.0731H18.082H18.091H18.0999H18.1089H18.1179H18.1269H18.1359H18.145H18.154H18.1631H18.1722H18.1812H18.1904H18.1995H18.2086H18.2178H18.2269H18.2361H18.2453H18.2545H18.2638H18.273H18.2823H18.2916H18.3008H18.3102H18.3195H18.3288H18.3382H18.3475H18.3569H18.3663H18.3757H18.3851H18.3946H18.4041H18.4135H18.423H18.4325H18.442H18.4516H18.4611H18.4707H18.4803H18.4899H18.4995H18.5091H18.5187H18.5284H18.5381H18.5478H18.5575H18.5672H18.5769H18.5867H18.5964H18.6062H18.616H18.6258H18.6357H18.6455H18.6554H18.6653H18.6751H18.6851H18.695H18.7049H18.7149H18.7248H18.7348H18.7448H18.7548H18.7649H18.7749H18.785H18.7951H18.8052H18.8153H18.8254H18.8355H18.8457H18.8559H18.8661H18.8763H18.8865H18.8967H18.907H18.9173H18.9275H18.9378H18.9482H18.9585H18.9689H18.9792H18.9896H19H19.0033H19.0067H19.01H19.0133H19.0167H19.02H19.0233H19.0266H19.0299H19.0333H19.0366H19.0399H19.0432H19.0465H19.0498H19.0531H19.0565H19.0598H19.0631H19.0664H19.0697H19.073H19.0763H19.0796H19.0829H19.0861H19.0894H19.0927H19.096H19.0993H19.1026H19.1059H19.1091H19.1124H19.1157H19.119H19.1223H19.1255H19.1288H19.1321H19.1353H19.1386H19.1419H19.1451H19.1484H19.1517H19.1549H19.1582H19.1614H19.1647H19.1679H19.1712H19.1744H19.1777H19.1809H19.1842H19.1874H19.1907H19.1939H19.1971H19.2004H19.2036H19.2068H19.2101H19.2133H19.2165H19.2197H19.223H19.2262H19.2294H19.2326H19.2358H19.2391H19.2423H19.2455H19.2487H19.2519H19.2551H19.2583H19.2615H19.2647H19.2679H19.2711H19.2743H19.2775H19.2807H19.2839H19.2871H19.2903H19.2935H19.2967H19.2999H19.3031H19.3062H19.3094H19.3126H19.3158H19.3189H19.3221H19.3253H19.3285H19.3316H19.3348H19.338H19.3411H19.3443H19.3475H19.3506H19.3538H19.3569H19.3601H19.3632H19.3664H19.3695H19.3727H19.3758H19.379H19.3821H19.3853H19.3884H19.3916H19.3947H19.3978H19.401H19.4041H19.4072H19.4104H19.4135H19.4166H19.4197H19.4229H19.426H19.4291H19.4322H19.4353H19.4384H19.4416H19.4447H19.4478H19.4509H19.454H19.4571H19.4602H19.4633H19.4664H19.4695H19.4726H19.4757H19.4788H19.4819H19.485H19.4881H19.4912H19.4942H19.4973H19.5004H19.5035H19.5066H19.5097H19.5127H19.5158H19.5189H19.522H19.525H19.5281H19.5312H19.5342H19.5373H19.5404H19.5434H19.5465H19.5495H19.5526H19.5556H19.5587H19.5618H19.5648H19.5678H19.5709H19.5739H19.577H19.58H19.5831H19.5861H19.5891H19.5922H19.5952H19.5982H19.6013H19.6043H19.6073H19.6104H19.6134H19.6164H19.6194H19.6225H19.6255H19.6285H19.6315H19.6345H19.6375H19.6405H19.6436H19.6466H19.6496H19.6526H19.6556H19.6586H19.6616H19.6646H19.6676H19.6706H19.6736H19.6766H19.6795H19.6825H19.6855H19.6885H19.6915H19.6945H19.6975H19.7004H19.7034H19.7064H19.7094H19.7123H19.7153H19.7183H19.7213H19.7242H19.7272H19.7301H19.7331H19.7361H19.739H19.742H19.7449H19.7479H19.7509H19.7538H19.7568H19.7597H19.7627H19.7656H19.7685H19.7715H19.7744H19.7774H19.7803H19.7832H19.7862H19.7891H19.792H19.795H19.7979H19.8008H19.8037H19.8067H19.8096H19.8125H19.8154H19.8184H19.8213H19.8242H19.8271H19.83H19.8329H19.8358H19.8387H19.8416H19.8445H19.8474H19.8503H19.8532H19.8561H19.859H19.8619H19.8648H19.8677H19.8706H19.8735H19.8764H19.8793H19.8822H19.885H19.8879H19.8908H19.8937H19.8966H19.8994H19.9023H19.9052H19.908H19.9109H19.9138H19.9166H19.9195H19.9224H19.9252H19.9281H19.9309H19.9338H19.9367H19.9395H19.9424H19.9452H19.9481H19.9509H19.9538H19.9566H19.9594H19.9623H19.9651H19.968H19.9708H19.9736H19.9765H19.9793H19.9821H19.985H19.9878H19.9906H19.9934H19.9963H19.9991H20.0019H20.0047H20.0075H20.0104H20.0132H20.016H20.0188H20.0216H20.0244H20.0272H20.03H20.0328H20.0356H20.0384H20.0412H20.044H20.0468H20.0496H20.0524H20.0552H20.058H20.0608H20.0636H20.0663H20.0691H20.0719H20.0747H20.0775H20.0802H20.083H20.0858H20.0886H20.0913H20.0941H20.0969H20.0996H20.1024H20.1052H20.1079H20.1107H20.1135H20.1162H20.119H20.1217H20.1245H20.1272H20.13H20.1327H20.1355H20.1382H20.141H20.1437H20.1465H20.1492H20.1519H20.1547H20.1574H20.1601H20.1629H20.1656H20.1683H20.1711H20.1738H20.1765H20.1792H20.182H20.1847H20.1874H20.1901H20.1928H20.1956H20.1983H20.201H20.2037H20.2064H20.2091H20.2118H20.2145H20.2172H20.2199H20.2226H20.2253H20.228H20.2307H20.2334H20.2361H20.2388H20.2415H20.2442H20.2469H20.2495H20.2522H20.2549H20.2576H20.2603H20.263H20.2656H20.2683H20.271H20.2736H20.2763H20.279H20.2817H20.2843H20.287H20.2896H20.2923H20.295H20.2976H20.3003H20.3029H20.3056H20.3082H20.3109H20.3135H20.3162H20.3188H20.3215H20.3241H20.3268H20.3294H20.3321H20.3347H20.3373H20.34H20.3426H20.3452H20.3479H20.3505H20.3531H20.3557H20.3584H20.361H20.3636H20.3662H20.3689H20.3715H20.3741H20.3767H20.3793H20.3819H20.3845H20.3872H20.3898H20.3924H20.395H20.3976H20.4002H20.4028H20.4054H20.408H20.4106H20.4132H20.4158H20.4183H20.4209H20.4235H20.4261H20.4287H20.4313H20.4339H20.4364H20.439H20.4416H20.4442H20.4468H20.4493H20.4519H20.4545H20.457H20.4596H20.4622H20.4647H20.4673H20.4699H20.4724H20.475H20.4776H20.4801H20.4827H20.4852H20.4878H20.4903H20.4929H20.4954H20.498H20.5005C21.6952 4 22.7672 4.52368 23.5 5.35393C24.2328 4.52368 25.3048 4 26.4995 4H26.502H26.5046H26.5071H26.5097H26.5122H26.5148H26.5173H26.5199H26.5224H26.525H26.5276H26.5301H26.5327H26.5353H26.5378H26.5404H26.543H26.5455H26.5481H26.5507H26.5532H26.5558H26.5584H26.561H26.5636H26.5661H26.5687H26.5713H26.5739H26.5765H26.5791H26.5817H26.5842H26.5868H26.5894H26.592H26.5946H26.5972H26.5998H26.6024H26.605H26.6076H26.6102H26.6128H26.6155H26.6181H26.6207H26.6233H26.6259H26.6285H26.6311H26.6338H26.6364H26.639H26.6416H26.6443H26.6469H26.6495H26.6521H26.6548H26.6574H26.66H26.6627H26.6653H26.6679H26.6706H26.6732H26.6759H26.6785H26.6812H26.6838H26.6865H26.6891H26.6918H26.6944H26.6971H26.6997H26.7024H26.705H26.7077H26.7104H26.713H26.7157H26.7183H26.721H26.7237H26.7264H26.729H26.7317H26.7344H26.737H26.7397H26.7424H26.7451H26.7478H26.7505H26.7531H26.7558H26.7585H26.7612H26.7639H26.7666H26.7693H26.772H26.7747H26.7774H26.7801H26.7828H26.7855H26.7882H26.7909H26.7936H26.7963H26.799H26.8017H26.8044H26.8072H26.8099H26.8126H26.8153H26.818H26.8208H26.8235H26.8262H26.8289H26.8317H26.8344H26.8371H26.8399H26.8426H26.8453H26.8481H26.8508H26.8535H26.8563H26.859H26.8618H26.8645H26.8673H26.87H26.8728H26.8755H26.8783H26.881H26.8838H26.8865H26.8893H26.8921H26.8948H26.8976H26.9004H26.9031H26.9059H26.9087H26.9114H26.9142H26.917H26.9198H26.9225H26.9253H26.9281H26.9309H26.9337H26.9364H26.9392H26.942H26.9448H26.9476H26.9504H26.9532H26.956H26.9588H26.9616H26.9644H26.9672H26.97H26.9728H26.9756H26.9784H26.9812H26.984H26.9868H26.9896H26.9925H26.9953H26.9981H27.0009H27.0037H27.0066H27.0094H27.0122H27.015H27.0179H27.0207H27.0235H27.0264H27.0292H27.032H27.0349H27.0377H27.0406H27.0434H27.0462H27.0491H27.0519H27.0548H27.0576H27.0605H27.0633H27.0662H27.0691H27.0719H27.0748H27.0776H27.0805H27.0834H27.0862H27.0891H27.092H27.0948H27.0977H27.1006H27.1034H27.1063H27.1092H27.1121H27.115H27.1178H27.1207H27.1236H27.1265H27.1294H27.1323H27.1352H27.1381H27.141H27.1439H27.1468H27.1497H27.1526H27.1555H27.1584H27.1613H27.1642H27.1671H27.17H27.1729H27.1758H27.1787H27.1816H27.1846H27.1875H27.1904H27.1933H27.1963H27.1992H27.2021H27.205H27.208H27.2109H27.2138H27.2168H27.2197H27.2226H27.2256H27.2285H27.2315H27.2344H27.2373H27.2403H27.2432H27.2462H27.2491H27.2521H27.2551H27.258H27.261H27.2639H27.2669H27.2699H27.2728H27.2758H27.2787H27.2817H27.2847H27.2877H27.2906H27.2936H27.2966H27.2996H27.3025H27.3055H27.3085H27.3115H27.3145H27.3175H27.3205H27.3234H27.3264H27.3294H27.3324H27.3354H27.3384H27.3414H27.3444H27.3474H27.3504H27.3534H27.3564H27.3595H27.3625H27.3655H27.3685H27.3715H27.3745H27.3775H27.3806H27.3836H27.3866H27.3896H27.3927H27.3957H27.3987H27.4018H27.4048H27.4078H27.4109H27.4139H27.4169H27.42H27.423H27.4261H27.4291H27.4321H27.4352H27.4382H27.4413H27.4444H27.4474H27.4505H27.4535H27.4566H27.4596H27.4627H27.4658H27.4688H27.4719H27.475H27.478H27.4811H27.4842H27.4873H27.4903H27.4934H27.4965H27.4996H27.5027H27.5058H27.5088H27.5119H27.515H27.5181H27.5212H27.5243H27.5274H27.5305H27.5336H27.5367H27.5398H27.5429H27.546H27.5491H27.5522H27.5553H27.5584H27.5616H27.5647H27.5678H27.5709H27.574H27.5771H27.5803H27.5834H27.5865H27.5896H27.5928H27.5959H27.599H27.6022H27.6053H27.6084H27.6116H27.6147H27.6179H27.621H27.6242H27.6273H27.6305H27.6336H27.6368H27.6399H27.6431H27.6462H27.6494H27.6525H27.6557H27.6589H27.662H27.6652H27.6684H27.6715H27.6747H27.6779H27.6811H27.6842H27.6874H27.6906H27.6938H27.6969H27.7001H27.7033H27.7065H27.7097H27.7129H27.7161H27.7193H27.7225H27.7257H27.7289H27.7321H27.7353H27.7385H27.7417H27.7449H27.7481H27.7513H27.7545H27.7577H27.7609H27.7642H27.7674H27.7706H27.7738H27.777H27.7803H27.7835H27.7867H27.7899H27.7932H27.7964H27.7996H27.8029H27.8061H27.8093H27.8126H27.8158H27.8191H27.8223H27.8256H27.8288H27.8321H27.8353H27.8386H27.8418H27.8451H27.8483H27.8516H27.8549H27.8581H27.8614H27.8647H27.8679H27.8712H27.8745H27.8777H27.881H27.8843H27.8876H27.8909H27.8941H27.8974H27.9007H27.904H27.9073H27.9106H27.9139H27.9171H27.9204H27.9237H27.927H27.9303H27.9336H27.9369H27.9402H27.9435H27.9469H27.9502H27.9535H27.9568H27.9601H27.9634H27.9667H27.9701H27.9734H27.9767H27.98H27.9833H27.9867H27.99H27.9933H27.9967H28H28.0104H28.0208H28.0311H28.0415H28.0518H28.0622H28.0725H28.0827H28.093H28.1033H28.1135H28.1237H28.1339H28.1441H28.1543H28.1645H28.1746H28.1847H28.1948H28.2049H28.215H28.2251H28.2351H28.2452H28.2552H28.2652H28.2752H28.2851H28.2951H28.305H28.3149H28.3249H28.3347H28.3446H28.3545H28.3643H28.3742H28.384H28.3938H28.4036H28.4133H28.4231H28.4328H28.4425H28.4522H28.4619H28.4716H28.4813H28.4909H28.5005H28.5101H28.5197H28.5293H28.5389H28.5484H28.558H28.5675H28.577H28.5865H28.5959H28.6054H28.6149H28.6243H28.6337H28.6431H28.6525H28.6618H28.6712H28.6805H28.6898H28.6992H28.7084H28.7177H28.727H28.7362H28.7455H28.7547H28.7639H28.7731H28.7822H28.7914H28.8005H28.8096H28.8188H28.8279H28.8369H28.846H28.855H28.8641H28.8731H28.8821H28.8911H28.9001H28.909H28.918H28.9269H28.9358H28.9447H28.9536H28.9625H28.9713H28.9802H28.989H28.9978H29.0066H29.0154H29.0242H29.0329H29.0417H29.0504H29.0591H29.0678H29.0765H29.0851H29.0938H29.1024H29.111H29.1196H29.1282H29.1368H29.1454H29.1539H29.1625H29.171H29.1795H29.188H29.1964H29.2049H29.2134H29.2218H29.2302H29.2386H29.247H29.2554H29.2637H29.2721H29.2804H29.2887H29.297H29.3053H29.3136H29.3219H29.3301H29.3383H29.3466H29.3548H29.3629H29.3711H29.3793H29.3874H29.3956H29.4037H29.4118H29.4199H29.4279H29.436H29.444H29.4521H29.4601H29.4681H29.4761H29.4841H29.492H29.5H29.5079H29.5158H29.5237H29.5316H29.5395H29.5474H29.5552H29.5631H29.5709H29.5787H29.5865H29.5943H29.602H29.6098H29.6175H29.6253H29.633H29.6407H29.6484H29.656H29.6637H29.6713H29.679H29.6866H29.6942H29.7018H29.7093H29.7169H29.7244H29.732H29.7395H29.747H29.7545H29.762H29.7694H29.7769H29.7843H29.7918H29.7992H29.8066H29.814H29.8213H29.8287H29.836H29.8434H29.8507H29.858H29.8653H29.8725H29.8798H29.8871H29.8943H29.9015H29.9087H29.9159H29.9231H29.9303H29.9374H29.9446H29.9517H29.9588H29.9659H29.973H29.9801H29.9871H29.9942H30.0012H30.0083H30.0153H30.0223H30.0292H30.0362H30.0432H30.0501H30.0571H30.064H30.0709H30.0778H30.0847H30.0915H30.0984H30.1052H30.112H30.1189H30.1257H30.1324H30.1392H30.146H30.1527H30.1595H30.1662H30.1729H30.1796H30.1863H30.193H30.1996H30.2063H30.2129H30.2195H30.2261H30.2327H30.2393H30.2459H30.2524H30.259H30.2655H30.272H30.2785H30.285H30.2915H30.298H30.3044H30.3109H30.3173H30.3237H30.3301H30.3365H30.3429H30.3493H30.3556H30.362H30.3683H30.3746H30.3809H30.3872H30.3935H30.3998H30.406H30.4123H30.4185H30.4247H30.4309H30.4371H30.4433H30.4495H30.4556H30.4618H30.4679H30.474H30.4801H30.4862H30.4923H30.4984H30.5044H30.5105H30.5165H30.5225H30.5285H30.5345H30.5405H30.5465H30.5524H30.5584H30.5643H30.5702H30.5762H30.5821H30.5879H30.5938H30.5997H30.6055H30.6114H30.6172H30.623H30.6288H30.6346H30.6404H30.6462H30.6519H30.6577H30.6634H30.6691H30.6748H30.6805H30.6862H30.6919H30.6975H30.7032H30.7088H30.7144H30.7201H30.7257H30.7312H30.7368H30.7424H30.7479H30.7535H30.759H30.7645H30.77H30.7755H30.781H30.7865H30.792H30.7974H30.8028H30.8083H30.8137H30.8191H30.8245H30.8299H30.8352H30.8406H30.8459H30.8513H30.8566H30.8619H30.8672H30.8725H30.8778H30.883H30.8883H30.8935H30.8988H30.904H30.9092H30.9144H30.9196H30.9247H30.9299H30.9351H30.9402H30.9453H30.9504H30.9556H30.9607H30.9657H30.9708H30.9759H30.9809H30.986H30.991H30.996H31.001H31.006H31.011H31.016H31.0209H31.0259H31.0308H31.0357H31.0407H31.0456H31.0505H31.0553H31.0602H31.0651H31.0699H31.0748H31.0796H31.0844H31.0892H31.094H31.0988H31.1036H31.1084H31.1131H31.1179H31.1226H31.1273H31.132H31.1367H31.1414H31.1461H31.1507H31.1554H31.1601H31.1647H31.1693H31.1739H31.1785H31.1831H31.1877H31.1923H31.1968H31.2014H31.2059H31.2104H31.215H31.2195H31.224H31.2285H31.2329H31.2374H31.2419H31.2463H31.2507H31.2552H31.2596H31.264H31.2684H31.2727H31.2771H31.2815H31.2858H31.2902H31.2945H31.2988H31.3031H31.3074H31.3117H31.316H31.3203H31.3245H31.3288H31.333H31.3372H31.3414H31.3456H31.3498H31.354H31.3582H31.3624H31.3665H31.3707H31.3748H31.3789H31.383H31.3872H31.3913H31.3953H31.3994H31.4035H31.4075H31.4116H31.4156H31.4196H31.4236H31.4277H31.4316H31.4356H31.4396H31.4436H31.4475H31.4515H31.4554H31.4593H31.4633H31.4672H31.4711H31.4749H31.4788H31.4827H31.4865H31.4904H31.4942H31.4981H31.5019C32.6089 4 33.5 4.89787 33.5 6V17.9231C33.5 18.4754 33.0523 18.9231 32.5 18.9231H32.4999H32.4998H32.4996H32.4994H32.4992H32.4989H32.4985H32.4982H32.4977H32.4972H32.4967H32.4962H32.4955H32.4949H32.4942H32.4934H32.4926H32.4918H32.4909H32.49H32.489H32.488H32.487H32.4859H32.4847H32.4835H32.4823H32.481H32.4797H32.4783H32.4769H32.4755H32.474H32.4724H32.4709H32.4692H32.4676H32.4659H32.4641H32.4623H32.4605H32.4586H32.4566H32.4547H32.4527H32.4506H32.4485H32.4464H32.4442H32.4419H32.4397H32.4374H32.435H32.4326H32.4302H32.4277H32.4252H32.4226H32.42H32.4174H32.4147H32.412H32.4092H32.4064H32.4035H32.4006H32.3977H32.3947H32.3917H32.3886H32.3855H32.3824H32.3792H32.376H32.3727H32.3694H32.3661H32.3627H32.3592H32.3558H32.3523H32.3487H32.3451H32.3415H32.3378H32.3341H32.3304H32.3266H32.3228H32.3189H32.315H32.311H32.307H32.303H32.299H32.2948H32.2907H32.2865H32.2823H32.278H32.2737H32.2694H32.265H32.2606H32.2561H32.2516H32.2471H32.2425H32.2379H32.2333H32.2286H32.2239H32.2191H32.2143H32.2095H32.2046H32.1997H32.1947H32.1897H32.1847H32.1796H32.1745H32.1694H32.1642H32.159H32.1537H32.1484H32.1431H32.1377H32.1323H32.1269H32.1214H32.1159H32.1104H32.1048H32.0991H32.0935H32.0878H32.0821H32.0763H32.0705H32.0646H32.0588H32.0528H32.0469H32.0409H32.0349H32.0288H32.0227H32.0166H32.0104H32.0042H31.998H31.9917H31.9854H31.9791H31.9727H31.9663H31.9598H31.9534H31.9468H31.9403H31.9337H31.9271H31.9204H31.9137H31.907H31.9002H31.8934H31.8866H31.8797H31.8728H31.8659H31.8589H31.8519H31.8449H31.8378H31.8307H31.8236H31.8164H31.8092H31.802H31.7947H31.7874H31.7801H31.7727H31.7653H31.7579H31.7504H31.7429H31.7354H31.7278H31.7202H31.7125H31.7049H31.6972H31.6894H31.6817H31.6739H31.666H31.6582H31.6503H31.6424H31.6344H31.6264H31.6184H31.6103H31.6022H31.5941H31.586H31.5778H31.5696H31.5613H31.5531H31.5448H31.5364H31.528H31.5196H31.5112H31.5027H31.4943H31.4857H31.4772H31.4686H31.46H31.4513H31.4426H31.4339H31.4252H31.4164H31.4076H31.3988H31.3899H31.381H31.3721H31.3632H31.3542H31.3452H31.3361H31.3271H31.318H31.3088H31.2997H31.2905H31.2813H31.272H31.2628H31.2534H31.2441H31.2347H31.2254H31.2159H31.2065H31.197H31.1875H31.178H31.1684H31.1588H31.1492H31.1395H31.1299H31.1202H31.1104H31.1007H31.0909H31.081H31.0712H31.0613H31.0514H31.0415H31.0315H31.0216H31.0115H31.0015H30.9914H30.9813H30.9712H30.9611H30.9509H30.9407H30.9305H30.9202H30.9099H30.8996H30.8893H30.8789H30.8685H30.8581H30.8477H30.8372H30.8267H30.8162H30.8056H30.7951H30.7845H30.7738H30.7632H30.7525H30.7418H30.7311H30.7203H30.7096H30.6987H30.6879H30.6771H30.6662H30.6553H30.6443H30.6334H30.6224H30.6114H30.6004H30.5893H30.5782H30.5671H30.556H30.5448H30.5337H30.5225H30.5112H30.5H30.4887H30.4774H30.4661H30.4547H30.4434H30.432H30.4205H30.4091H30.3976H30.3861H30.3746H30.3631H30.3515H30.34H30.3283H30.3167H30.3051H30.2934H30.2817H30.27H30.2582H30.2464H30.2347H30.2228H30.211H30.1991H30.1873H30.1754H30.1634H30.1515H30.1395H30.1275H30.1155H30.1035H30.0914H30.0793H30.0672H30.0551H30.043H30.0308H30.0186H30.0064H29.9942H29.9819H29.9696H29.9574H29.945H29.9327H29.9203H29.908H29.8956H29.8831H29.8707H29.8582H29.8458H29.8333H29.8207H29.8082H29.7956H29.783H29.7704H29.7578H29.7452H29.7325H29.7198H29.7071H29.6944H29.6816H29.6689H29.6561H29.6433H29.6305H29.6176H29.6048H29.5919H29.579H29.5661H29.5531H29.5402H29.5272H29.5142H29.5012H29.4882H29.4751H29.4621H29.449H29.4359H29.4227H29.4096H29.3964H29.3833H29.3701H29.3569H29.3436H29.3304H29.3171H29.3038H29.2905H29.2772H29.2639H29.2505H29.2371H29.2237H29.2103H29.1969H29.1835H29.17H29.1565H29.143H29.1295H29.116H29.1025H29.0889H29.0753H29.0617H29.0481H29.0345H29.0209H29.0072H28.9935H28.9798H28.9661H28.9524H28.9387H28.9249H28.9111H28.8973H28.8835H28.8697H28.8559H28.842H28.8282H28.8143H28.8004H28.7865H28.7726H28.7586H28.7447H28.7307H28.7167H28.7027H28.6887H28.6747H28.6606H28.6466H28.6325H28.6184H28.6043H28.5902H28.5761H28.5619H28.5478H28.5336H28.5194H28.5052H28.491H28.4768H28.4625H28.4483H28.434H28.4197H28.4054H28.3911H28.3768H28.3625H28.3481H28.3338H28.3194H28.305H28.2906H28.2762H28.2618H28.2473H28.2329H28.2184H28.2039H28.1894H28.1749H28.1604H28.1459H28.1314H28.1168H28.1023H28.0877H28.0731H28.0585H28.0439H28.0293H28.0146H28C26.8882 18.9231 25.8728 19.1637 25.127 19.4108C24.7567 19.5335 24.4596 19.6556 24.2586 19.7451C24.1583 19.7898 24.0824 19.8262 24.034 19.8502C24.0097 19.8622 23.9924 19.871 23.9823 19.8762L23.9741 19.8805M24.5 8V17.5116C25.3791 17.2205 26.6129 16.9231 28 16.9231H28.0146H28.0293H28.0439H28.0585H28.0731H28.0877H28.1023H28.1168H28.1314H28.1459H28.1604H28.1749H28.1894H28.2039H28.2184H28.2329H28.2473H28.2618H28.2762H28.2906H28.305H28.3194H28.3338H28.3481H28.3625H28.3768H28.3911H28.4054H28.4197H28.434H28.4483H28.4625H28.4768H28.491H28.5052H28.5194H28.5336H28.5478H28.5619H28.5761H28.5902H28.6043H28.6184H28.6325H28.6466H28.6606H28.6747H28.6887H28.7027H28.7167H28.7307H28.7447H28.7586H28.7726H28.7865H28.8004H28.8143H28.8282H28.842H28.8559H28.8697H28.8835H28.8973H28.9111H28.9249H28.9387H28.9524H28.9661H28.9798H28.9935H29.0072H29.0209H29.0345H29.0481H29.0617H29.0753H29.0889H29.1025H29.116H29.1295H29.143H29.1565H29.17H29.1835H29.1969H29.2103H29.2237H29.2371H29.2505H29.2639H29.2772H29.2905H29.3038H29.3171H29.3304H29.3436H29.3569H29.3701H29.3833H29.3964H29.4096H29.4227H29.4359H29.449H29.4621H29.4751H29.4882H29.5012H29.5142H29.5272H29.5402H29.5531H29.5661H29.579H29.5919H29.6048H29.6176H29.6305H29.6433H29.6561H29.6689H29.6816H29.6944H29.7071H29.7198H29.7325H29.7452H29.7578H29.7704H29.783H29.7956H29.8082H29.8207H29.8333H29.8458H29.8582H29.8707H29.8831H29.8956H29.908H29.9203H29.9327H29.945H29.9574H29.9696H29.9819H29.9942H30.0064H30.0186H30.0308H30.043H30.0551H30.0672H30.0793H30.0914H30.1035H30.1155H30.1275H30.1395H30.1515H30.1634H30.1754H30.1873H30.1991H30.211H30.2228H30.2347H30.2464H30.2582H30.27H30.2817H30.2934H30.3051H30.3167H30.3283H30.34H30.3515H30.3631H30.3746H30.3861H30.3976H30.4091H30.4205H30.432H30.4434H30.4547H30.4661H30.4774H30.4887H30.5H30.5112H30.5225H30.5337H30.5448H30.556H30.5671H30.5782H30.5893H30.6004H30.6114H30.6224H30.6334H30.6443H30.6553H30.6662H30.6771H30.6879H30.6987H30.7096H30.7203H30.7311H30.7418H30.7525H30.7632H30.7738H30.7845H30.7951H30.8056H30.8162H30.8267H30.8372H30.8477H30.8581H30.8685H30.8789H30.8893H30.8996H30.9099H30.9202H30.9305H30.9407H30.9509H30.9611H30.9712H30.9813H30.9914H31.0015H31.0115H31.0216H31.0315H31.0415H31.0514H31.0613H31.0712H31.081H31.0909H31.1007H31.1104H31.1202H31.1299H31.1395H31.1492H31.1588H31.1684H31.178H31.1875H31.197H31.2065H31.2159H31.2254H31.2347H31.2441H31.2534H31.2628H31.272H31.2813H31.2905H31.2997H31.3088H31.318H31.3271H31.3361H31.3452H31.3542H31.3632H31.3721H31.381H31.3899H31.3988H31.4076H31.4164H31.4252H31.4339H31.4426H31.4513H31.46H31.4686H31.4772H31.4857H31.4943H31.5V6H31.4981H31.4942H31.4904H31.4865H31.4827H31.4788H31.4749H31.4711H31.4672H31.4633H31.4593H31.4554H31.4515H31.4475H31.4436H31.4396H31.4356H31.4316H31.4277H31.4236H31.4196H31.4156H31.4116H31.4075H31.4035H31.3994H31.3953H31.3913H31.3872H31.383H31.3789H31.3748H31.3707H31.3665H31.3624H31.3582H31.354H31.3498H31.3456H31.3414H31.3372H31.333H31.3288H31.3245H31.3203H31.316H31.3117H31.3074H31.3031H31.2988H31.2945H31.2902H31.2858H31.2815H31.2771H31.2727H31.2684H31.264H31.2596H31.2552H31.2507H31.2463H31.2419H31.2374H31.2329H31.2285H31.224H31.2195H31.215H31.2104H31.2059H31.2014H31.1968H31.1923H31.1877H31.1831H31.1785H31.1739H31.1693H31.1647H31.1601H31.1554H31.1507H31.1461H31.1414H31.1367H31.132H31.1273H31.1226H31.1179H31.1131H31.1084H31.1036H31.0988H31.094H31.0892H31.0844H31.0796H31.0748H31.0699H31.0651H31.0602H31.0553H31.0505H31.0456H31.0407H31.0357H31.0308H31.0259H31.0209H31.016H31.011H31.006H31.001H30.996H30.991H30.986H30.9809H30.9759H30.9708H30.9657H30.9607H30.9556H30.9504H30.9453H30.9402H30.9351H30.9299H30.9247H30.9196H30.9144H30.9092H30.904H30.8988H30.8935H30.8883H30.883H30.8778H30.8725H30.8672H30.8619H30.8566H30.8513H30.8459H30.8406H30.8352H30.8299H30.8245H30.8191H30.8137H30.8083H30.8028H30.7974H30.792H30.7865H30.781H30.7755H30.77H30.7645H30.759H30.7535H30.7479H30.7424H30.7368H30.7312H30.7257H30.7201H30.7144H30.7088H30.7032H30.6975H30.6919H30.6862H30.6805H30.6748H30.6691H30.6634H30.6577H30.6519H30.6462H30.6404H30.6346H30.6288H30.623H30.6172H30.6114H30.6055H30.5997H30.5938H30.5879H30.5821H30.5762H30.5702H30.5643H30.5584H30.5524H30.5465H30.5405H30.5345H30.5285H30.5225H30.5165H30.5105H30.5044H30.4984H30.4923H30.4862H30.4801H30.474H30.4679H30.4618H30.4556H30.4495H30.4433H30.4371H30.4309H30.4247H30.4185H30.4123H30.406H30.3998H30.3935H30.3872H30.3809H30.3746H30.3683H30.362H30.3556H30.3493H30.3429H30.3365H30.3301H30.3237H30.3173H30.3109H30.3044H30.298H30.2915H30.285H30.2785H30.272H30.2655H30.259H30.2524H30.2459H30.2393H30.2327H30.2261H30.2195H30.2129H30.2063H30.1996H30.193H30.1863H30.1796H30.1729H30.1662H30.1595H30.1527H30.146H30.1392H30.1324H30.1257H30.1189H30.112H30.1052H30.0984H30.0915H30.0847H30.0778H30.0709H30.064H30.0571H30.0501H30.0432H30.0362H30.0292H30.0223H30.0153H30.0083H30.0012H29.9942H29.9871H29.9801H29.973H29.9659H29.9588H29.9517H29.9446H29.9374H29.9303H29.9231H29.9159H29.9087H29.9015H29.8943H29.8871H29.8798H29.8725H29.8653H29.858H29.8507H29.8434H29.836H29.8287H29.8213H29.814H29.8066H29.7992H29.7918H29.7843H29.7769H29.7694H29.762H29.7545H29.747H29.7395H29.732H29.7244H29.7169H29.7093H29.7018H29.6942H29.6866H29.679H29.6713H29.6637H29.656H29.6484H29.6407H29.633H29.6253H29.6175H29.6098H29.602H29.5943H29.5865H29.5787H29.5709H29.5631H29.5552H29.5474H29.5395H29.5316H29.5237H29.5158H29.5079H29.5H29.492H29.4841H29.4761H29.4681H29.4601H29.4521H29.444H29.436H29.4279H29.4199H29.4118H29.4037H29.3956H29.3874H29.3793H29.3711H29.3629H29.3548H29.3466H29.3383H29.3301H29.3219H29.3136H29.3053H29.297H29.2887H29.2804H29.2721H29.2637H29.2554H29.247H29.2386H29.2302H29.2218H29.2134H29.2049H29.1964H29.188H29.1795H29.171H29.1625H29.1539H29.1454H29.1368H29.1282H29.1196H29.111H29.1024H29.0938H29.0851H29.0765H29.0678H29.0591H29.0504H29.0417H29.0329H29.0242H29.0154H29.0066H28.9978H28.989H28.9802H28.9713H28.9625H28.9536H28.9447H28.9358H28.9269H28.918H28.909H28.9001H28.8911H28.8821H28.8731H28.8641H28.855H28.846H28.8369H28.8279H28.8188H28.8096H28.8005H28.7914H28.7822H28.7731H28.7639H28.7547H28.7455H28.7362H28.727H28.7177H28.7084H28.6992H28.6898H28.6805H28.6712H28.6618H28.6525H28.6431H28.6337H28.6243H28.6149H28.6054H28.5959H28.5865H28.577H28.5675H28.558H28.5484H28.5389H28.5293H28.5197H28.5101H28.5005H28.4909H28.4813H28.4716H28.4619H28.4522H28.4425H28.4328H28.4231H28.4133H28.4036H28.3938H28.384H28.3742H28.3643H28.3545H28.3446H28.3347H28.3249H28.3149H28.305H28.2951H28.2851H28.2752H28.2652H28.2552H28.2452H28.2351H28.2251H28.215H28.2049H28.1948H28.1847H28.1746H28.1645H28.1543H28.1441H28.1339H28.1237H28.1135H28.1033H28.093H28.0827H28.0725H28.0622H28.0518H28.0415H28.0311H28.0208H28.0104H28H27.9967H27.9933H27.99H27.9867H27.9833H27.98H27.9767H27.9734H27.9701H27.9667H27.9634H27.9601H27.9568H27.9535H27.9502H27.9469H27.9435H27.9402H27.9369H27.9336H27.9303H27.927H27.9237H27.9204H27.9171H27.9139H27.9106H27.9073H27.904H27.9007H27.8974H27.8941H27.8909H27.8876H27.8843H27.881H27.8777H27.8745H27.8712H27.8679H27.8647H27.8614H27.8581H27.8549H27.8516H27.8483H27.8451H27.8418H27.8386H27.8353H27.8321H27.8288H27.8256H27.8223H27.8191H27.8158H27.8126H27.8093H27.8061H27.8029H27.7996H27.7964H27.7932H27.7899H27.7867H27.7835H27.7803H27.777H27.7738H27.7706H27.7674H27.7642H27.7609H27.7577H27.7545H27.7513H27.7481H27.7449H27.7417H27.7385H27.7353H27.7321H27.7289H27.7257H27.7225H27.7193H27.7161H27.7129H27.7097H27.7065H27.7033H27.7001H27.6969H27.6938H27.6906H27.6874H27.6842H27.6811H27.6779H27.6747H27.6715H27.6684H27.6652H27.662H27.6589H27.6557H27.6525H27.6494H27.6462H27.6431H27.6399H27.6368H27.6336H27.6305H27.6273H27.6242H27.621H27.6179H27.6147H27.6116H27.6084H27.6053H27.6022H27.599H27.5959H27.5928H27.5896H27.5865H27.5834H27.5803H27.5771H27.574H27.5709H27.5678H27.5647H27.5616H27.5584H27.5553H27.5522H27.5491H27.546H27.5429H27.5398H27.5367H27.5336H27.5305H27.5274H27.5243H27.5212H27.5181H27.515H27.5119H27.5088H27.5058H27.5027H27.4996H27.4965H27.4934H27.4903H27.4873H27.4842H27.4811H27.478H27.475H27.4719H27.4688H27.4658H27.4627H27.4596H27.4566H27.4535H27.4505H27.4474H27.4444H27.4413H27.4382H27.4352H27.4321H27.4291H27.4261H27.423H27.42H27.4169H27.4139H27.4109H27.4078H27.4048H27.4018H27.3987H27.3957H27.3927H27.3896H27.3866H27.3836H27.3806H27.3775H27.3745H27.3715H27.3685H27.3655H27.3625H27.3595H27.3564H27.3534H27.3504H27.3474H27.3444H27.3414H27.3384H27.3354H27.3324H27.3294H27.3264H27.3234H27.3205H27.3175H27.3145H27.3115H27.3085H27.3055H27.3025H27.2996H27.2966H27.2936H27.2906H27.2877H27.2847H27.2817H27.2787H27.2758H27.2728H27.2699H27.2669H27.2639H27.261H27.258H27.2551H27.2521H27.2491H27.2462H27.2432H27.2403H27.2373H27.2344H27.2315H27.2285H27.2256H27.2226H27.2197H27.2168H27.2138H27.2109H27.208H27.205H27.2021H27.1992H27.1963H27.1933H27.1904H27.1875H27.1846H27.1816H27.1787H27.1758H27.1729H27.17H27.1671H27.1642H27.1613H27.1584H27.1555H27.1526H27.1497H27.1468H27.1439H27.141H27.1381H27.1352H27.1323H27.1294H27.1265H27.1236H27.1207H27.1178H27.115H27.1121H27.1092H27.1063H27.1034H27.1006H27.0977H27.0948H27.092H27.0891H27.0862H27.0834H27.0805H27.0776H27.0748H27.0719H27.0691H27.0662H27.0633H27.0605H27.0576H27.0548H27.0519H27.0491H27.0462H27.0434H27.0406H27.0377H27.0349H27.032H27.0292H27.0264H27.0235H27.0207H27.0179H27.015H27.0122H27.0094H27.0066H27.0037H27.0009H26.9981H26.9953H26.9925H26.9896H26.9868H26.984H26.9812H26.9784H26.9756H26.9728H26.97H26.9672H26.9644H26.9616H26.9588H26.956H26.9532H26.9504H26.9476H26.9448H26.942H26.9392H26.9364H26.9337H26.9309H26.9281H26.9253H26.9225H26.9198H26.917H26.9142H26.9114H26.9087H26.9059H26.9031H26.9004H26.8976H26.8948H26.8921H26.8893H26.8865H26.8838H26.881H26.8783H26.8755H26.8728H26.87H26.8673H26.8645H26.8618H26.859H26.8563H26.8535H26.8508H26.8481H26.8453H26.8426H26.8399H26.8371H26.8344H26.8317H26.8289H26.8262H26.8235H26.8208H26.818H26.8153H26.8126H26.8099H26.8072H26.8044H26.8017H26.799H26.7963H26.7936H26.7909H26.7882H26.7855H26.7828H26.7801H26.7774H26.7747H26.772H26.7693H26.7666H26.7639H26.7612H26.7585H26.7558H26.7531H26.7505H26.7478H26.7451H26.7424H26.7397H26.737H26.7344H26.7317H26.729H26.7264H26.7237H26.721H26.7183H26.7157H26.713H26.7104H26.7077H26.705H26.7024H26.6997H26.6971H26.6944H26.6918H26.6891H26.6865H26.6838H26.6812H26.6785H26.6759H26.6732H26.6706H26.6679H26.6653H26.6627H26.66H26.6574H26.6548H26.6521H26.6495H26.6469H26.6443H26.6416H26.639H26.6364H26.6338H26.6311H26.6285H26.6259H26.6233H26.6207H26.6181H26.6155H26.6128H26.6102H26.6076H26.605H26.6024H26.5998H26.5972H26.5946H26.592H26.5894H26.5868H26.5842H26.5817H26.5791H26.5765H26.5739H26.5713H26.5687H26.5661H26.5636H26.561H26.5584H26.5558H26.5532H26.5507H26.5481H26.5455H26.543H26.5404H26.5378H26.5353H26.5327H26.5301H26.5276H26.525H26.5224H26.5199H26.5173H26.5148H26.5122H26.5097H26.5071H26.5046H26.502H26.4995C25.3951 6 24.5 6.89521 24.5 8ZM23.8966 19.918C23.9226 19.9068 23.9483 19.8944 23.9735 19.8808L23.9737 19.8807M23.8966 19.918C23.6188 20.0381 23.2988 20.0266 23.028 19.8816C23.0275 19.8813 23.027 19.8811 23.0265 19.8808M31.5 5.99857C31.5 5.99869 31.5 5.99883 31.5 5.99899L31.5002 5.99911L31.5 5.99857ZM31.4999 5.9982L31.5 5.99857L31.4999 5.9982Z" fill="#B76935"/>
<path d="M8.41653 46V36.214H11.1465C11.9865 36.214 12.6959 36.2933 13.2745 36.452C13.8625 36.6107 14.3665 36.844 14.7865 37.152C15.3465 37.572 15.7619 38.1133 16.0325 38.776C16.3032 39.4387 16.4385 40.2133 16.4385 41.1C16.4385 41.996 16.3032 42.7753 16.0325 43.438C15.7619 44.1007 15.3465 44.6373 14.7865 45.048C14.3665 45.3653 13.8625 45.6033 13.2745 45.762C12.6959 45.9207 11.9865 46 11.1465 46H8.41653ZM9.99853 44.6H11.1325C12.2432 44.6 13.0925 44.376 13.6805 43.928C14.4645 43.3493 14.8565 42.4067 14.8565 41.1C14.8565 39.7933 14.4645 38.8553 13.6805 38.286C13.0925 37.838 12.2432 37.614 11.1325 37.614H9.99853V44.6ZM22.7162 39.084H24.2422V46H22.7162V45.132C22.4736 45.4493 22.1656 45.6967 21.7922 45.874C21.4189 46.0513 20.9942 46.14 20.5182 46.14C19.6689 46.14 19.0249 45.9253 18.5862 45.496C18.1476 45.0667 17.9282 44.46 17.9282 43.676V39.084H19.4542V43.382C19.4542 43.9047 19.5942 44.292 19.8742 44.544C20.1542 44.7867 20.5182 44.908 20.9662 44.908C21.4516 44.908 21.8622 44.754 22.1982 44.446C22.5342 44.1287 22.7069 43.6293 22.7162 42.948V39.084ZM32.5736 44.796V46H31.8596C31.505 46 31.211 45.9253 30.9776 45.776C30.7536 45.6173 30.6416 45.3653 30.6416 45.02V44.866H30.5716C30.329 45.2673 29.9836 45.58 29.5356 45.804C29.097 46.028 28.5696 46.14 27.9536 46.14C27.6643 46.14 27.389 46.1027 27.1276 46.028C26.8663 45.9627 26.6376 45.8553 26.4416 45.706C26.2456 45.5473 26.0916 45.3513 25.9796 45.118C25.8676 44.8847 25.8116 44.6047 25.8116 44.278C25.8116 43.9233 25.8816 43.62 26.0216 43.368C26.1616 43.116 26.3483 42.906 26.5816 42.738C26.8243 42.5607 27.1043 42.416 27.4216 42.304C27.7483 42.192 28.0983 42.1033 28.4716 42.038L29.7176 41.8C29.867 41.772 29.9976 41.7253 30.1096 41.66C30.231 41.5853 30.2916 41.464 30.2916 41.296C30.2916 40.876 30.1656 40.5633 29.9136 40.358C29.671 40.1527 29.3396 40.05 28.9196 40.05C28.0236 40.05 27.5243 40.4793 27.4216 41.338L25.8956 41.128C26.017 40.4093 26.3343 39.868 26.8476 39.504C27.361 39.1307 28.061 38.944 28.9476 38.944C29.881 38.944 30.5903 39.1633 31.0756 39.602C31.5703 40.0313 31.8176 40.6567 31.8176 41.478V44.138C31.8176 44.3807 31.855 44.5533 31.9296 44.656C32.0043 44.7493 32.135 44.796 32.3216 44.796H32.5736ZM28.3736 44.95C28.9616 44.95 29.4423 44.7493 29.8156 44.348C30.189 43.9467 30.3756 43.4007 30.3756 42.71L28.5416 43.13C27.739 43.27 27.3376 43.606 27.3376 44.138C27.3376 44.3993 27.4263 44.6 27.6036 44.74C27.7903 44.88 28.047 44.95 28.3736 44.95ZM36.2718 46.14C35.8798 46.14 35.5158 46.098 35.1798 46.014C34.8438 45.93 34.5405 45.804 34.2698 45.636C34.0085 45.468 33.7892 45.2627 33.6118 45.02C33.4345 44.768 33.3178 44.4833 33.2618 44.166L34.5358 43.816C34.6385 44.2267 34.8392 44.53 35.1378 44.726C35.4458 44.922 35.8098 45.02 36.2298 45.02C36.5938 45.02 36.8925 44.9407 37.1258 44.782C37.3685 44.6233 37.4898 44.3947 37.4898 44.096C37.4898 43.9093 37.4432 43.76 37.3498 43.648C37.2658 43.5267 37.1445 43.4287 36.9858 43.354C36.8365 43.27 36.6638 43.2047 36.4678 43.158C36.2718 43.102 36.0665 43.0553 35.8518 43.018C35.5065 42.9527 35.1845 42.8733 34.8858 42.78C34.5965 42.6867 34.3398 42.5653 34.1158 42.416C33.9012 42.2667 33.7332 42.08 33.6118 41.856C33.4905 41.632 33.4298 41.3567 33.4298 41.03C33.4298 40.3767 33.6725 39.868 34.1578 39.504C34.6432 39.1307 35.2825 38.944 36.0758 38.944C36.4025 38.944 36.7152 38.9813 37.0138 39.056C37.3218 39.1213 37.5972 39.2287 37.8398 39.378C38.0825 39.5273 38.2878 39.714 38.4558 39.938C38.6332 40.1527 38.7592 40.414 38.8338 40.722L37.4898 41.016C37.3872 40.6893 37.2098 40.4467 36.9578 40.288C36.7152 40.1293 36.4072 40.05 36.0338 40.05C35.6792 40.05 35.3898 40.1247 35.1658 40.274C34.9418 40.414 34.8298 40.6147 34.8298 40.876C34.8298 41.0253 34.8718 41.1513 34.9558 41.254C35.0492 41.3567 35.1658 41.4453 35.3058 41.52C35.4552 41.5853 35.6278 41.646 35.8238 41.702C36.0198 41.7487 36.2252 41.7953 36.4398 41.842C36.8132 41.926 37.1538 42.0193 37.4618 42.122C37.7698 42.2153 38.0358 42.3413 38.2598 42.5C38.4838 42.6493 38.6565 42.8407 38.7778 43.074C38.8992 43.3073 38.9598 43.6013 38.9598 43.956C38.9598 44.3293 38.8852 44.6513 38.7358 44.922C38.5958 45.1927 38.4045 45.4213 38.1618 45.608C37.9192 45.7853 37.6345 45.916 37.3078 46C36.9812 46.0933 36.6358 46.14 36.2718 46.14Z" fill="#B76935"/>
</svg>
