<svg width="32" height="32" viewBox="0 0 32 32" fill="none" xmlns="http://www.w3.org/2000/svg">
<path fill-rule="evenodd" clip-rule="evenodd" d="M14.63 26.9541L16.0005 24.6665L17.4053 26.9331C16.557 27.4589 15.4861 27.467 14.63 26.9541ZM13.9901 8.67643C12.9594 7.97641 11.6128 7.33317 10.1446 7.33317C6.77746 7.33317 4.8011 9.80936 5.45989 13.2082C6.5878 19.0273 16.0005 24.6665 16.0005 24.6665C14.63 26.9541 14.6305 26.9544 14.63 26.9541L14.6247 26.9509L14.6159 26.9456L14.5882 26.9288C14.5654 26.9149 14.5337 26.8956 14.4938 26.8709C14.4141 26.8217 14.3013 26.7513 14.1599 26.6611C13.8772 26.4808 13.4788 26.2205 13 25.891C12.0462 25.2344 10.7552 24.2903 9.41802 23.1444C8.08836 22.0051 6.66217 20.6231 5.47275 19.0842C4.30003 17.5668 3.23421 15.7394 2.84195 13.7156C2.39436 11.4064 2.79673 9.10238 4.20779 7.33329C5.62793 5.55281 7.78999 4.6665 10.1446 4.6665C12.5762 4.6665 14.5974 5.8118 15.8513 6.72599C15.9018 6.76281 15.9515 6.79961 16.0005 6.83633C16.0494 6.79961 16.0992 6.76281 16.1497 6.72599C17.4036 5.8118 19.4248 4.6665 21.8564 4.6665C27.1166 4.6665 30.1511 9.53949 29.1359 13.8231C28.6704 15.7872 27.592 17.5759 26.417 19.0775C25.2257 20.6 23.8177 21.9752 22.5076 23.1146C21.1908 24.2597 19.9271 25.206 18.9947 25.8653C18.5268 26.1962 18.1382 26.4577 17.8627 26.6389C17.7249 26.7296 17.615 26.8003 17.5375 26.8498C17.5178 26.8623 17.5003 26.8734 17.4848 26.8832C17.4697 26.8928 17.4567 26.901 17.4457 26.9079L17.4189 26.9247L17.4104 26.9299L17.4053 26.9331C17.4048 26.9334 17.4053 26.9331 16.0005 24.6665C16.0005 24.6665 25.1728 18.9816 26.5411 13.2082C27.1999 10.4284 25.2235 7.33317 21.8564 7.33317C20.3881 7.33317 19.0416 7.97642 18.0109 8.67643C16.7807 9.51198 16.0005 10.4284 16.0005 10.4284C16.0005 10.4284 15.2203 9.51198 13.9901 8.67643Z" fill="#26272B"/>
</svg>
