<svg width="47" height="51" viewBox="0 0 47 51" fill="none" xmlns="http://www.w3.org/2000/svg">
<path fill-rule="evenodd" clip-rule="evenodd" d="M22 19.9967C22 21.1031 21.1046 22 20 22H17.5C15.8431 22 14.5 20.6547 14.5 18.9951V10.5421C14.5 9.70022 14.8526 8.89691 15.472 8.32778L21.4985 2.79055C22.6121 1.76732 24.3118 1.73352 25.4651 2.71169L31.4386 7.7781C32.1118 8.34905 32.5 9.1878 32.5 10.0713V18.9951C32.5 20.6547 31.1568 22 29.5 22H27C25.8954 22 25 21.1031 25 19.9967V15.0252H22V19.9967ZM24.1727 4.24051C23.7882 3.91446 23.2217 3.92572 22.8505 4.2668L16.824 9.80402C16.6175 9.99373 16.5 10.2615 16.5 10.5421V18.9951C16.5 19.5483 16.9477 19.9967 17.5 19.9967H20V14.0236C20 13.4704 20.4477 13.0219 21 13.0219H26C26.5523 13.0219 27 13.4704 27 14.0236V19.9967H29.5C30.0523 19.9967 30.5 19.5483 30.5 18.9951V10.0713C30.5 9.77682 30.3706 9.49724 30.1462 9.30692L24.1727 4.24051Z" fill="#B76935"/>
<path d="M5.12845 46V36.214H6.72445V40.4H11.4844V36.214H13.0804V46H11.4844V41.786H6.72445V46H5.12845ZM18.3709 46.14C17.8296 46.14 17.3349 46.056 16.8869 45.888C16.4389 45.7107 16.0516 45.468 15.7249 45.16C15.3982 44.8427 15.1416 44.4647 14.9549 44.026C14.7776 43.578 14.6889 43.0787 14.6889 42.528C14.6889 41.9773 14.7776 41.4827 14.9549 41.044C15.1416 40.6053 15.3982 40.232 15.7249 39.924C16.0516 39.6067 16.4389 39.364 16.8869 39.196C17.3349 39.028 17.8296 38.944 18.3709 38.944C18.9122 38.944 19.4069 39.028 19.8549 39.196C20.3029 39.364 20.6856 39.6067 21.0029 39.924C21.3296 40.232 21.5816 40.6053 21.7589 41.044C21.9456 41.4827 22.0389 41.9773 22.0389 42.528C22.0389 43.0787 21.9456 43.578 21.7589 44.026C21.5816 44.4647 21.3296 44.8427 21.0029 45.16C20.6856 45.468 20.3029 45.7107 19.8549 45.888C19.4069 46.056 18.9122 46.14 18.3709 46.14ZM18.3709 44.908C18.6882 44.908 18.9776 44.852 19.2389 44.74C19.5096 44.6187 19.7382 44.4553 19.9249 44.25C20.1116 44.0353 20.2562 43.7833 20.3589 43.494C20.4709 43.2047 20.5269 42.8827 20.5269 42.528C20.5269 42.1827 20.4709 41.8653 20.3589 41.576C20.2562 41.2867 20.1116 41.0393 19.9249 40.834C19.7382 40.6193 19.5096 40.456 19.2389 40.344C18.9776 40.2227 18.6882 40.162 18.3709 40.162C18.0536 40.162 17.7596 40.2227 17.4889 40.344C17.2276 40.456 16.9989 40.6193 16.8029 40.834C16.6162 41.0393 16.4716 41.2867 16.3689 41.576C16.2662 41.8653 16.2149 42.1827 16.2149 42.528C16.2149 42.8827 16.2662 43.2047 16.3689 43.494C16.4716 43.7833 16.6162 44.0353 16.8029 44.25C16.9989 44.4553 17.2276 44.6187 17.4889 44.74C17.7596 44.852 18.0536 44.908 18.3709 44.908ZM31.4372 38.944C32.1652 38.944 32.7345 39.1307 33.1452 39.504C33.5652 39.868 33.7752 40.3767 33.7752 41.03V46H32.2492V41.52C32.2492 41.072 32.1278 40.736 31.8852 40.512C31.6425 40.2787 31.3252 40.162 30.9332 40.162C30.5225 40.162 30.1725 40.302 29.8832 40.582C29.5938 40.862 29.4492 41.3333 29.4492 41.996V46H27.9232V41.52C27.9232 41.072 27.7972 40.736 27.5452 40.512C27.3025 40.2787 26.9852 40.162 26.5932 40.162C26.2105 40.162 25.8792 40.2833 25.5992 40.526C25.3285 40.7593 25.1698 41.142 25.1232 41.674V46H23.5972V39.084H25.1232V39.896C25.3378 39.5973 25.6132 39.364 25.9492 39.196C26.2945 39.028 26.6818 38.944 27.1112 38.944C27.6525 38.944 28.1098 39.0513 28.4832 39.266C28.8565 39.4713 29.1225 39.77 29.2812 40.162C29.4958 39.77 29.7852 39.4713 30.1492 39.266C30.5225 39.0513 30.9518 38.944 31.4372 38.944ZM42.2654 42.85H36.7634C36.8101 43.5127 37.0294 44.026 37.4214 44.39C37.8134 44.754 38.2987 44.936 38.8774 44.936C39.2974 44.936 39.6614 44.838 39.9694 44.642C40.2867 44.446 40.5247 44.166 40.6834 43.802L42.0834 44.012C41.8501 44.684 41.4487 45.2067 40.8794 45.58C40.3101 45.9533 39.6427 46.14 38.8774 46.14C38.3361 46.14 37.8414 46.056 37.3934 45.888C36.9454 45.72 36.5627 45.482 36.2454 45.174C35.9374 44.8567 35.6947 44.4787 35.5174 44.04C35.3494 43.592 35.2654 43.0927 35.2654 42.542C35.2654 41.9913 35.3541 41.4967 35.5314 41.058C35.7087 40.61 35.9514 40.232 36.2594 39.924C36.5767 39.6067 36.9547 39.364 37.3934 39.196C37.8321 39.028 38.3127 38.944 38.8354 38.944C39.3301 38.944 39.7874 39.0233 40.2074 39.182C40.6274 39.3313 40.9914 39.5553 41.2994 39.854C41.6074 40.1527 41.8454 40.526 42.0134 40.974C42.1907 41.4127 42.2794 41.9213 42.2794 42.5L42.2654 42.85ZM38.8494 40.148C38.3174 40.148 37.8741 40.274 37.5194 40.526C37.1647 40.7687 36.9361 41.156 36.8334 41.688H40.7394C40.6647 41.184 40.4547 40.8013 40.1094 40.54C39.7641 40.2787 39.3441 40.148 38.8494 40.148Z" fill="#B76935"/>
</svg>
