<svg width="47" height="51" viewBox="0 0 47 51" fill="none" xmlns="http://www.w3.org/2000/svg">
<path fill-rule="evenodd" clip-rule="evenodd" d="M22 19.9967C22 21.1031 21.1046 22 20 22H17.5C15.8431 22 14.5 20.6547 14.5 18.9951V10.5421C14.5 9.70022 14.8526 8.89691 15.472 8.32778L21.4985 2.79055C22.6121 1.76732 24.3118 1.73352 25.4651 2.71169L31.4386 7.7781C32.1118 8.34905 32.5 9.1878 32.5 10.0713V18.9951C32.5 20.6547 31.1568 22 29.5 22H27C25.8954 22 25 21.1031 25 19.9967V15.0252H22V19.9967ZM24.1727 4.24051C23.7882 3.91446 23.2217 3.92572 22.8505 4.2668L16.824 9.80402C16.6175 9.99373 16.5 10.2615 16.5 10.5421V18.9951C16.5 19.5483 16.9477 19.9967 17.5 19.9967H20V14.0236C20 13.4704 20.4477 13.0219 21 13.0219H26C26.5523 13.0219 27 13.4704 27 14.0236V19.9967H29.5C30.0523 19.9967 30.5 19.5483 30.5 18.9951V10.0713C30.5 9.77682 30.3706 9.49724 30.1462 9.30692L24.1727 4.24051Z" fill="#51525C"/>
<path d="M6.99619 46H5.84819V36.326H6.99619V40.638H12.2182V36.326H13.3662V46H12.2182V41.66H6.99619V46ZM18.6486 46.14C16.6046 46.14 15.1626 44.726 15.1626 42.598C15.1626 40.484 16.6046 39.084 18.6486 39.07C20.6786 39.084 22.1206 40.484 22.1206 42.598C22.1206 44.726 20.6786 46.14 18.6486 46.14ZM18.6486 45.23C20.0486 45.23 21.0146 44.138 21.0146 42.598C21.0146 41.072 20.0486 39.98 18.6486 39.98C17.2346 39.98 16.2686 41.072 16.2686 42.598C16.2686 44.138 17.2346 45.23 18.6486 45.23ZM30.9924 39.07C32.3644 39.07 33.2044 39.868 33.2044 41.156V46H32.0984V41.478C32.0984 40.526 31.5104 39.98 30.6564 39.98C29.7464 39.98 29.0744 40.582 29.0744 41.856V46H27.9684V41.478C27.9684 40.526 27.3664 39.98 26.5124 39.98C25.6024 39.98 24.9304 40.596 24.9304 41.87V46H23.8244V39.21H24.9304V40.078C25.3224 39.434 25.9944 39.07 26.8484 39.07C27.8844 39.07 28.6264 39.532 28.9204 40.302C29.3124 39.518 30.0544 39.07 30.9924 39.07ZM41.5844 42.57L41.5704 42.836H35.9424C36.0124 44.306 36.9784 45.244 38.2804 45.244C39.2044 45.244 39.9464 44.768 40.3104 43.956L41.3464 44.124C40.8564 45.384 39.7084 46.14 38.2804 46.14C36.2364 46.14 34.8364 44.726 34.8364 42.612C34.8364 40.484 36.2504 39.07 38.2524 39.07C40.1704 39.07 41.5844 40.372 41.5844 42.57ZM38.2524 39.966C37.0204 39.966 36.1524 40.694 35.9704 41.982H40.4644C40.3244 40.722 39.4424 39.966 38.2524 39.966Z" fill="#51525C"/>
</svg>
