<svg width="24" height="24" viewBox="0 0 24 24" fill="none" xmlns="http://www.w3.org/2000/svg">
<path fill-rule="evenodd" clip-rule="evenodd" d="M10.7474 16.6585C11.1111 17.0741 11.7429 17.1163 12.1585 16.7526C12.5741 16.3889 12.6163 15.7571 12.2526 15.3415L10.2038 13L20 13C20.5523 13 21 12.5523 21 12C21 11.4477 20.5523 11 20 11L10.2038 11L12.2526 8.65851C12.6163 8.24287 12.5741 7.61111 12.1585 7.24742C11.7429 6.88374 11.1111 6.92586 10.7474 7.3415L7.24742 11.3415C6.91753 11.7185 6.91753 12.2815 7.24742 12.6585L10.7474 16.6585ZM8 4C8.55229 4 9 3.55229 9 3C9 2.44772 8.55229 2 8 2L5 2C3.89543 2 3 2.89543 3 4L3 20C3 21.1046 3.89543 22 5 22L8 22C8.55229 22 9 21.5523 9 21C9 20.4477 8.55229 20 8 20L5 20L5 4L8 4Z" fill="#E63131"/>
</svg>
