<svg width="32" height="32" viewBox="0 0 32 32" fill="none" xmlns="http://www.w3.org/2000/svg">
<path fill-rule="evenodd" clip-rule="evenodd" d="M2.66699 15.9998C2.66699 23.3636 8.63653 29.3332 16.0003 29.3332C23.3641 29.3332 29.3337 23.3636 29.3337 15.9998C29.3337 8.63604 23.3641 2.6665 16.0003 2.6665C8.63653 2.6665 2.66699 8.63604 2.66699 15.9998ZM5.33366 15.9998C5.33366 10.1088 10.1093 5.33317 16.0003 5.33317C21.8914 5.33317 26.667 10.1088 26.667 15.9998C26.667 21.8909 21.8914 26.6665 16.0003 26.6665C10.1093 26.6665 5.33366 21.8909 5.33366 15.9998ZM16.1462 11.1144C15.3279 10.5688 14.2758 10.518 13.4087 10.982C12.5416 11.4461 12.0003 12.3497 12.0003 13.3332V18.6665C12.0003 19.65 12.5416 20.5536 13.4087 21.0176C14.2758 21.4817 15.3279 21.4308 16.1462 20.8853L20.1462 18.2186C20.8881 17.7241 21.3337 16.8914 21.3337 15.9998C21.3337 15.1082 20.8881 14.2756 20.1462 13.781L16.1462 11.1144ZM16.2633 17.6023L14.667 18.6665V16.5381V15.4616V13.3332L16.2633 14.3974L17.3337 15.1109L18.667 15.9998L17.3337 16.8887L16.2633 17.6023Z" fill="#26272B"/>
</svg>
