<svg width="47" height="51" viewBox="0 0 47 51" fill="none" xmlns="http://www.w3.org/2000/svg">
<path fill-rule="evenodd" clip-rule="evenodd" d="M31.6943 3.21161C31.6943 3.88076 31.1533 4.42321 30.4858 4.42321C29.8184 4.42321 29.2773 3.88076 29.2773 3.21161C29.2773 2.54245 29.8184 2 30.4858 2C31.1533 2 31.6943 2.54245 31.6943 3.21161ZM26.4575 8.4619C27.1249 8.4619 27.666 7.91944 27.666 7.25029C27.666 6.58114 27.1249 6.03869 26.4575 6.03869C25.7901 6.03869 25.249 6.58114 25.249 7.25029C25.249 7.91944 25.7901 8.4619 26.4575 8.4619ZM31.2915 10.8851C31.9589 10.8851 32.5 10.3427 32.5 9.6735C32.5 9.00435 31.9589 8.4619 31.2915 8.4619C30.6241 8.4619 30.083 9.00435 30.083 9.6735C30.083 10.3427 30.6241 10.8851 31.2915 10.8851ZM17.0843 16.7482C15.082 13.2712 16.2702 8.82517 19.7383 6.81772C19.9671 6.6853 20.1999 6.56686 20.4357 6.46211C20.0713 8.82981 20.4789 11.3348 21.7669 13.5714C23.2253 16.1038 25.5445 17.8278 28.1383 18.5867C27.7895 18.8918 27.406 19.1679 26.9893 19.4091C23.5212 21.4165 19.0866 20.2252 17.0843 16.7482ZM18.9326 5.41868C14.6939 7.87223 13.2415 13.3063 15.6888 17.556C18.1361 21.8056 23.5562 23.2617 27.795 20.8081C28.8029 20.2247 29.6547 19.4714 30.3337 18.6046C30.7153 18.1175 30.4305 17.3987 29.8195 17.3069C27.1221 16.9016 24.6308 15.3136 23.1624 12.7636C21.8384 10.4646 21.6058 7.8354 22.3043 5.47518C22.4802 4.88095 21.9505 4.31776 21.3485 4.45888C20.5197 4.65317 19.7059 4.97111 18.9326 5.41868Z" fill="#3F3F46"/>
<path d="M10.0735 36.97C10.6895 37.46 11.0395 38.258 11.0395 39.294C11.0395 40.498 10.5775 41.478 9.65351 41.982C9.03751 42.304 8.28151 42.374 7.48351 42.374H5.63551V46H4.48751V36.326H7.48351C8.72951 36.326 9.49951 36.522 10.0735 36.97ZM9.05151 41.086C9.59751 40.764 9.89151 40.176 9.89151 39.35C9.89151 38.594 9.65351 38.034 9.19151 37.698C8.75751 37.39 8.14151 37.306 7.34351 37.306H5.63551V41.38H7.34351C8.04351 41.38 8.64551 41.324 9.05151 41.086ZM13.699 39.21V40.498C14.119 39.602 15.043 39.07 16.303 39.07V40.12C14.553 40.12 13.699 40.932 13.699 42.794V46H12.593V39.21H13.699ZM23.2705 45.104H23.5225V46H22.9625C22.2905 46 21.8565 45.692 21.8565 45.006V44.698H21.8005C21.3385 45.608 20.4425 46.14 19.2245 46.14C18.0345 46.14 17.1525 45.552 17.1525 44.334C17.1525 43.004 18.2025 42.416 19.7145 42.136L21.1145 41.898C21.3805 41.842 21.6325 41.716 21.6325 41.422C21.6325 40.414 21.0165 39.91 20.0365 39.91C19.0565 39.91 18.4685 40.372 18.3565 41.296L17.2505 41.156C17.4605 39.784 18.4405 39.07 20.0505 39.07C21.7725 39.07 22.7385 39.952 22.7385 41.548V44.418C22.7385 44.908 22.8785 45.104 23.2705 45.104ZM19.4905 45.244C20.8485 45.244 21.6885 44.264 21.6885 42.57L19.7845 42.948C18.7625 43.116 18.2585 43.536 18.2585 44.236C18.2585 44.88 18.7065 45.244 19.4905 45.244ZM26.9707 44.67L29.1267 39.21H30.3307L26.0747 49.402H24.8567L26.3967 45.832L23.6107 39.21H24.8147L26.9707 44.67ZM37.8451 42.57L37.8311 42.836H32.2031C32.2731 44.306 33.2391 45.244 34.5411 45.244C35.4651 45.244 36.2071 44.768 36.5711 43.956L37.6071 44.124C37.1171 45.384 35.9691 46.14 34.5411 46.14C32.4971 46.14 31.0971 44.726 31.0971 42.612C31.0971 40.484 32.5111 39.07 34.5131 39.07C36.4311 39.07 37.8451 40.372 37.8451 42.57ZM34.5131 39.966C33.2811 39.966 32.4131 40.694 32.2311 41.982H36.7251C36.5851 40.722 35.7031 39.966 34.5131 39.966ZM40.6326 39.21V40.498C41.0526 39.602 41.9766 39.07 43.2366 39.07V40.12C41.4866 40.12 40.6326 40.932 40.6326 42.794V46H39.5266V39.21H40.6326Z" fill="#51525C"/>
</svg>
