<svg width="47" height="51" viewBox="0 0 47 51" fill="none" xmlns="http://www.w3.org/2000/svg">
<path fill-rule="evenodd" clip-rule="evenodd" d="M31.6943 3.21161C31.6943 3.88076 31.1533 4.42321 30.4858 4.42321C29.8184 4.42321 29.2773 3.88076 29.2773 3.21161C29.2773 2.54245 29.8184 2 30.4858 2C31.1533 2 31.6943 2.54245 31.6943 3.21161ZM26.4575 8.4619C27.1249 8.4619 27.666 7.91944 27.666 7.25029C27.666 6.58114 27.1249 6.03869 26.4575 6.03869C25.7901 6.03869 25.249 6.58114 25.249 7.25029C25.249 7.91944 25.7901 8.4619 26.4575 8.4619ZM31.2915 10.8851C31.9589 10.8851 32.5 10.3427 32.5 9.6735C32.5 9.00435 31.9589 8.4619 31.2915 8.4619C30.6241 8.4619 30.083 9.00435 30.083 9.6735C30.083 10.3427 30.6241 10.8851 31.2915 10.8851ZM17.0843 16.7482C15.082 13.2712 16.2702 8.82517 19.7383 6.81772C19.9671 6.6853 20.1999 6.56686 20.4357 6.46211C20.0713 8.82981 20.4789 11.3348 21.7669 13.5714C23.2253 16.1038 25.5445 17.8278 28.1383 18.5867C27.7895 18.8918 27.406 19.1679 26.9893 19.4091C23.5212 21.4165 19.0866 20.2252 17.0843 16.7482ZM18.9326 5.41868C14.6939 7.87223 13.2415 13.3063 15.6888 17.556C18.1361 21.8056 23.5562 23.2617 27.795 20.8081C28.8029 20.2247 29.6547 19.4714 30.3337 18.6046C30.7153 18.1175 30.4305 17.3987 29.8195 17.3069C27.1221 16.9016 24.6308 15.3136 23.1624 12.7636C21.8384 10.4646 21.6058 7.8354 22.3043 5.47518C22.4802 4.88095 21.9505 4.31776 21.3485 4.45888C20.5197 4.65317 19.7059 4.97111 18.9326 5.41868Z" fill="#B76935"/>
<path d="M9.62042 36.914C10.2224 37.404 10.5724 38.188 10.5724 39.238C10.5724 40.47 10.1104 41.506 9.14442 42.038C8.45842 42.402 7.60442 42.444 6.87642 42.444H5.33642V46H3.75442V36.214H6.87642C8.20642 36.214 9.01842 36.438 9.62042 36.914ZM8.29042 40.806C8.75242 40.526 8.99042 40.036 8.99042 39.322C8.99042 38.664 8.76642 38.188 8.38842 37.908C7.96842 37.614 7.33842 37.544 6.66642 37.544H5.33642V41.1H6.66642C7.26842 41.1 7.91242 41.058 8.29042 40.806ZM13.4813 39.084V40.232C13.9013 39.448 14.8113 38.944 15.9873 38.944V40.358C14.2793 40.358 13.4813 41.03 13.4813 42.78V46H11.9552V39.084H13.4813ZM23.2845 44.796H23.5365V46H22.8225C22.1085 46 21.6045 45.706 21.6045 45.02V44.866H21.5345C21.0585 45.664 20.1485 46.14 18.9165 46.14C17.7545 46.14 16.7745 45.58 16.7745 44.278C16.7745 42.864 17.9505 42.318 19.4345 42.038L20.6805 41.8C20.9745 41.744 21.2545 41.632 21.2545 41.296C21.2545 40.456 20.7085 40.05 19.8825 40.05C19.0005 40.05 18.4825 40.484 18.3845 41.338L16.8585 41.128C17.0965 39.7 18.1465 38.944 19.9105 38.944C21.7725 38.944 22.7805 39.84 22.7805 41.478V44.138C22.7805 44.614 22.9205 44.796 23.2845 44.796ZM19.3365 44.95C20.5125 44.95 21.3385 44.082 21.3385 42.71L19.5045 43.13C18.7205 43.27 18.3005 43.592 18.3005 44.138C18.3005 44.656 18.6785 44.95 19.3365 44.95ZM27.1593 44.194L29.1333 39.084H30.7993L26.4453 49.402H24.7793L26.3753 45.734L23.5473 39.084H25.1993L27.1593 44.194ZM38.3761 42.5L38.3621 42.85H32.8601C32.9441 44.166 33.8261 44.936 34.9741 44.936C35.8141 44.936 36.4581 44.53 36.7801 43.802L38.1801 44.012C37.7181 45.356 36.5001 46.14 34.9741 46.14C32.7901 46.14 31.3621 44.74 31.3621 42.542C31.3621 40.33 32.8321 38.944 34.9321 38.944C36.9061 38.944 38.3761 40.176 38.3761 42.5ZM34.9461 40.148C33.8821 40.148 33.1401 40.638 32.9301 41.688H36.8361C36.6821 40.68 35.9261 40.148 34.9461 40.148ZM41.4402 39.084V40.232C41.8602 39.448 42.7702 38.944 43.9462 38.944V40.358C42.2382 40.358 41.4402 41.03 41.4402 42.78V46H39.9142V39.084H41.4402Z" fill="#B76935"/>
</svg>
