<svg width="55" height="51" viewBox="0 0 55 51" fill="none" xmlns="http://www.w3.org/2000/svg">
<path fill-rule="evenodd" clip-rule="evenodd" d="M25 2C24.5535 2 24.1612 2.29598 24.0385 2.72528L23.2781 5.38671L20.6415 5.01005C20.1938 4.94611 19.759 5.19048 19.5809 5.60608L18.0809 9.10608C17.9198 9.48192 18.0038 9.91797 18.2929 10.2071L20.0858 12L18.2929 13.7929C17.9741 14.1118 17.9081 14.6046 18.1318 14.9961L20.1318 18.4961C20.3395 18.8596 20.7515 19.0552 21.1644 18.9864L23.2838 18.6332L24.0385 21.2747C24.1612 21.704 24.5535 22 25 22H30C30.4465 22 30.8389 21.704 30.9616 21.2747L31.7163 18.6332L33.8356 18.9864C34.2485 19.0552 34.6606 18.8596 34.8683 18.4961L36.8683 14.9961C37.092 14.6046 37.026 14.1118 36.7071 13.7929L34.9142 12L36.7071 10.2071C36.9963 9.91797 37.0802 9.48192 36.9192 9.10608L35.4192 5.60608C35.2411 5.19048 34.8062 4.94611 34.3586 5.01005L31.722 5.38671L30.9616 2.72528C30.8389 2.29598 30.4465 2 30 2H25ZM24.9616 6.77472L25.7543 4H29.2457L30.0385 6.77472C30.1758 7.25523 30.6467 7.56062 31.1415 7.48995L33.8828 7.09833L34.8142 9.27163L32.7929 11.2929C32.4024 11.6834 32.4024 12.3166 32.7929 12.7071L34.7528 14.667L33.4774 16.8991L31.1644 16.5136C30.6628 16.43 30.1782 16.7363 30.0385 17.2253L29.2457 20H25.7543L24.9616 17.2253C24.8218 16.7363 24.3373 16.43 23.8356 16.5136L21.5227 16.8991L20.2472 14.667L22.2071 12.7071C22.5977 12.3166 22.5977 11.6834 22.2071 11.2929L20.1859 9.27163L21.1173 7.09833L23.8586 7.48995C24.3533 7.56062 24.8243 7.25523 24.9616 6.77472ZM27.5 14C26.3955 14 25.5 13.1046 25.5 12C25.5 10.8954 26.3955 10 27.5 10C28.6046 10 29.5 10.8954 29.5 12C29.5 13.1046 28.6046 14 27.5 14ZM23.5 12C23.5 9.79086 25.2909 8 27.5 8C29.7092 8 31.5 9.79086 31.5 12C31.5 14.2091 29.7092 16 27.5 16C25.2909 16 23.5 14.2091 23.5 12Z" fill="#B76935"/>
<path d="M4.64598 46.182C4.13265 46.182 3.64732 46.1213 3.18998 46C2.74198 45.8787 2.34532 45.7013 1.99998 45.468C1.65465 45.2253 1.36532 44.9313 1.13198 44.586C0.907984 44.2407 0.753984 43.844 0.669984 43.396L2.23798 43.06C2.39665 43.676 2.68132 44.1333 3.09198 44.432C3.51198 44.7213 4.03465 44.866 4.65998 44.866C5.27598 44.866 5.74732 44.7353 6.07398 44.474C6.40998 44.2127 6.57798 43.844 6.57798 43.368C6.57798 43.0973 6.51265 42.878 6.38198 42.71C6.26065 42.5327 6.08798 42.3833 5.86398 42.262C5.64932 42.1407 5.39732 42.038 5.10798 41.954C4.82798 41.87 4.53398 41.786 4.22598 41.702C3.85265 41.5993 3.47465 41.4873 3.09198 41.366C2.70932 41.2353 2.35932 41.0673 2.04198 40.862C1.73398 40.6473 1.48198 40.3813 1.28598 40.064C1.08998 39.7467 0.991984 39.3453 0.991984 38.86C0.991984 38.4307 1.07132 38.0433 1.22998 37.698C1.39798 37.3527 1.63132 37.0587 1.92998 36.816C2.22865 36.564 2.58332 36.3727 2.99398 36.242C3.41398 36.102 3.87598 36.032 4.37998 36.032C4.81865 36.032 5.23865 36.0787 5.63998 36.172C6.05065 36.2653 6.41932 36.4147 6.74598 36.62C7.08198 36.8253 7.36665 37.0913 7.59999 37.418C7.84265 37.7353 8.01998 38.118 8.13198 38.566L6.70398 38.902C6.51732 38.3607 6.24665 37.9687 5.89198 37.726C5.53732 37.474 5.06132 37.348 4.46398 37.348C3.90398 37.348 3.45132 37.474 3.10598 37.726C2.76998 37.978 2.60198 38.328 2.60198 38.776C2.60198 39.0187 2.66265 39.224 2.78398 39.392C2.90532 39.5507 3.06865 39.686 3.27398 39.798C3.47932 39.91 3.71732 40.0033 3.98798 40.078C4.25865 40.1527 4.54332 40.2273 4.84198 40.302C5.22465 40.3953 5.61665 40.5073 6.01798 40.638C6.41932 40.7593 6.78332 40.9273 7.10998 41.142C7.43665 41.3567 7.70265 41.632 7.90798 41.968C8.12265 42.304 8.22998 42.7333 8.22998 43.256C8.22998 43.704 8.14598 44.11 7.97798 44.474C7.80998 44.8287 7.56732 45.132 7.24998 45.384C6.94198 45.636 6.56398 45.832 6.11598 45.972C5.67732 46.112 5.18732 46.182 4.64598 46.182ZM16.4676 42.85H10.9656C11.0122 43.5127 11.2316 44.026 11.6236 44.39C12.0156 44.754 12.5009 44.936 13.0796 44.936C13.4996 44.936 13.8636 44.838 14.1716 44.642C14.4889 44.446 14.7269 44.166 14.8856 43.802L16.2856 44.012C16.0522 44.684 15.6509 45.2067 15.0816 45.58C14.5122 45.9533 13.8449 46.14 13.0796 46.14C12.5382 46.14 12.0436 46.056 11.5956 45.888C11.1476 45.72 10.7649 45.482 10.4476 45.174C10.1396 44.8567 9.8969 44.4787 9.71956 44.04C9.55156 43.592 9.46756 43.0927 9.46756 42.542C9.46756 41.9913 9.55623 41.4967 9.73356 41.058C9.9109 40.61 10.1536 40.232 10.4616 39.924C10.7789 39.6067 11.1569 39.364 11.5956 39.196C12.0342 39.028 12.5149 38.944 13.0376 38.944C13.5322 38.944 13.9896 39.0233 14.4096 39.182C14.8296 39.3313 15.1936 39.5553 15.5016 39.854C15.8096 40.1527 16.0476 40.526 16.2156 40.974C16.3929 41.4127 16.4816 41.9213 16.4816 42.5L16.4676 42.85ZM13.0516 40.148C12.5196 40.148 12.0762 40.274 11.7216 40.526C11.3669 40.7687 11.1382 41.156 11.0356 41.688H14.9416C14.8669 41.184 14.6569 40.8013 14.3116 40.54C13.9662 40.2787 13.5462 40.148 13.0516 40.148ZM20.6553 46C20.0113 46 19.512 45.818 19.1573 45.454C18.812 45.09 18.6393 44.586 18.6393 43.942V40.26H17.2533V39.084H17.9113C18.182 39.084 18.3966 39.014 18.5553 38.874C18.7233 38.734 18.8073 38.454 18.8073 38.034V36.816H20.1653V39.084H21.7613V40.26H20.1653V43.718C20.1653 44.0727 20.254 44.3387 20.4313 44.516C20.618 44.684 20.8606 44.768 21.1593 44.768H21.7613V46H20.6553ZM26.001 46C25.357 46 24.8577 45.818 24.503 45.454C24.1577 45.09 23.985 44.586 23.985 43.942V40.26H22.599V39.084H23.257C23.5277 39.084 23.7423 39.014 23.901 38.874C24.069 38.734 24.153 38.454 24.153 38.034V36.816H25.511V39.084H27.107V40.26H25.511V43.718C25.511 44.0727 25.5997 44.3387 25.777 44.516C25.9637 44.684 26.2063 44.768 26.505 44.768H27.107V46H26.001ZM29.3167 37.712C29.0554 37.712 28.8314 37.6187 28.6447 37.432C28.4581 37.2453 28.3647 37.0213 28.3647 36.76C28.3647 36.4987 28.4581 36.2793 28.6447 36.102C28.8314 35.9153 29.0554 35.822 29.3167 35.822C29.5781 35.822 29.8021 35.9153 29.9887 36.102C30.1754 36.2793 30.2687 36.4987 30.2687 36.76C30.2687 37.0213 30.1754 37.2453 29.9887 37.432C29.8021 37.6187 29.5781 37.712 29.3167 37.712ZM28.5607 46V39.084H30.0867V46H28.5607ZM35.648 38.944C36.4973 38.944 37.1413 39.1587 37.58 39.588C38.0187 40.0173 38.238 40.624 38.238 41.408V46H36.712V41.702C36.712 41.1793 36.572 40.792 36.292 40.54C36.012 40.288 35.648 40.162 35.2 40.162C34.752 40.162 34.3647 40.2973 34.038 40.568C33.7113 40.8293 33.52 41.254 33.464 41.842V46H31.938V39.084H33.464V39.938C33.7067 39.6207 34.01 39.378 34.374 39.21C34.7473 39.0327 35.172 38.944 35.648 38.944ZM45.2674 39.084H46.7934V45.888C46.7934 47.1293 46.4761 48.0393 45.8414 48.618C45.2161 49.206 44.3621 49.5 43.2794 49.5C42.3461 49.5 41.5994 49.304 41.0394 48.912C40.4794 48.52 40.0781 47.9973 39.8354 47.344L41.1094 46.812C41.3148 47.2973 41.5901 47.666 41.9354 47.918C42.2808 48.1793 42.7101 48.31 43.2234 48.31C43.9234 48.31 44.4368 48.1 44.7634 47.68C45.0994 47.2693 45.2674 46.7093 45.2674 46V44.698C45.0621 45.0527 44.7494 45.342 44.3294 45.566C43.9188 45.79 43.4474 45.902 42.9154 45.902C42.4674 45.902 42.0474 45.818 41.6554 45.65C41.2728 45.482 40.9368 45.244 40.6474 44.936C40.3581 44.628 40.1294 44.2593 39.9614 43.83C39.7934 43.4007 39.7094 42.9247 39.7094 42.402C39.7094 41.8793 39.7934 41.408 39.9614 40.988C40.1294 40.5587 40.3581 40.1947 40.6474 39.896C40.9368 39.588 41.2774 39.3547 41.6694 39.196C42.0614 39.028 42.4814 38.944 42.9294 38.944C43.4708 38.944 43.9421 39.056 44.3434 39.28C44.7448 39.504 45.0528 39.798 45.2674 40.162V39.084ZM43.2654 44.656C43.5734 44.656 43.8534 44.6 44.1054 44.488C44.3668 44.376 44.5908 44.222 44.7774 44.026C44.9641 43.8207 45.1088 43.5827 45.2114 43.312C45.3141 43.032 45.3654 42.7287 45.3654 42.402C45.3654 42.0753 45.3141 41.7767 45.2114 41.506C45.1088 41.226 44.9641 40.988 44.7774 40.792C44.5908 40.596 44.3668 40.442 44.1054 40.33C43.8534 40.218 43.5734 40.162 43.2654 40.162C42.9668 40.162 42.6868 40.218 42.4254 40.33C42.1734 40.442 41.9541 40.596 41.7674 40.792C41.5808 40.988 41.4361 41.226 41.3334 41.506C41.2308 41.7767 41.1794 42.0753 41.1794 42.402C41.1794 42.7287 41.2308 43.032 41.3334 43.312C41.4361 43.5827 41.5808 43.8207 41.7674 44.026C41.9541 44.222 42.1734 44.376 42.4254 44.488C42.6868 44.6 42.9668 44.656 43.2654 44.656ZM51.3324 46.14C50.9404 46.14 50.5764 46.098 50.2404 46.014C49.9044 45.93 49.601 45.804 49.3304 45.636C49.069 45.468 48.8497 45.2627 48.6724 45.02C48.495 44.768 48.3784 44.4833 48.3224 44.166L49.5964 43.816C49.699 44.2267 49.8997 44.53 50.1984 44.726C50.5064 44.922 50.8704 45.02 51.2904 45.02C51.6544 45.02 51.953 44.9407 52.1864 44.782C52.429 44.6233 52.5504 44.3947 52.5504 44.096C52.5504 43.9093 52.5037 43.76 52.4104 43.648C52.3264 43.5267 52.205 43.4287 52.0464 43.354C51.897 43.27 51.7244 43.2047 51.5284 43.158C51.3324 43.102 51.127 43.0553 50.9124 43.018C50.567 42.9527 50.245 42.8733 49.9464 42.78C49.657 42.6867 49.4004 42.5653 49.1764 42.416C48.9617 42.2667 48.7937 42.08 48.6724 41.856C48.551 41.632 48.4904 41.3567 48.4904 41.03C48.4904 40.3767 48.733 39.868 49.2184 39.504C49.7037 39.1307 50.343 38.944 51.1364 38.944C51.463 38.944 51.7757 38.9813 52.0744 39.056C52.3824 39.1213 52.6577 39.2287 52.9004 39.378C53.143 39.5273 53.3484 39.714 53.5164 39.938C53.6937 40.1527 53.8197 40.414 53.8944 40.722L52.5504 41.016C52.4477 40.6893 52.2704 40.4467 52.0184 40.288C51.7757 40.1293 51.4677 40.05 51.0944 40.05C50.7397 40.05 50.4504 40.1247 50.2264 40.274C50.0024 40.414 49.8904 40.6147 49.8904 40.876C49.8904 41.0253 49.9324 41.1513 50.0164 41.254C50.1097 41.3567 50.2264 41.4453 50.3664 41.52C50.5157 41.5853 50.6884 41.646 50.8844 41.702C51.0804 41.7487 51.2857 41.7953 51.5004 41.842C51.8737 41.926 52.2144 42.0193 52.5224 42.122C52.8304 42.2153 53.0964 42.3413 53.3204 42.5C53.5444 42.6493 53.717 42.8407 53.8384 43.074C53.9597 43.3073 54.0204 43.6013 54.0204 43.956C54.0204 44.3293 53.9457 44.6513 53.7964 44.922C53.6564 45.1927 53.465 45.4213 53.2224 45.608C52.9797 45.7853 52.695 45.916 52.3684 46C52.0417 46.0933 51.6964 46.14 51.3324 46.14Z" fill="#B76935"/>
</svg>
