<svg width="53" height="51" viewBox="0 0 53 51" fill="none" xmlns="http://www.w3.org/2000/svg">
<path fill-rule="evenodd" clip-rule="evenodd" d="M24 2C23.5535 2 23.1612 2.29598 23.0385 2.72528L22.2781 5.38671L19.6415 5.01005C19.1938 4.94611 18.759 5.19048 18.5809 5.60608L17.0809 9.10608C16.9198 9.48192 17.0038 9.91797 17.2929 10.2071L19.0858 12L17.2929 13.7929C16.9741 14.1118 16.9081 14.6046 17.1318 14.9961L19.1318 18.4961C19.3395 18.8596 19.7515 19.0552 20.1644 18.9864L22.2838 18.6332L23.0385 21.2747C23.1612 21.704 23.5535 22 24 22H29C29.4465 22 29.8389 21.704 29.9616 21.2747L30.7163 18.6332L32.8356 18.9864C33.2485 19.0552 33.6606 18.8596 33.8683 18.4961L35.8683 14.9961C36.092 14.6046 36.026 14.1118 35.7071 13.7929L33.9142 12L35.7071 10.2071C35.9963 9.91797 36.0802 9.48192 35.9192 9.10608L34.4192 5.60608C34.2411 5.19048 33.8062 4.94611 33.3586 5.01005L30.722 5.38671L29.9616 2.72528C29.8389 2.29598 29.4465 2 29 2H24ZM23.9616 6.77472L24.7543 4H28.2457L29.0385 6.77472C29.1758 7.25523 29.6467 7.56062 30.1415 7.48995L32.8828 7.09833L33.8142 9.27163L31.7929 11.2929C31.4024 11.6834 31.4024 12.3166 31.7929 12.7071L33.7528 14.667L32.4774 16.8991L30.1644 16.5136C29.6628 16.43 29.1782 16.7363 29.0385 17.2253L28.2457 20H24.7543L23.9616 17.2253C23.8218 16.7363 23.3373 16.43 22.8356 16.5136L20.5227 16.8991L19.2472 14.667L21.2071 12.7071C21.5977 12.3166 21.5977 11.6834 21.2071 11.2929L19.1859 9.27163L20.1173 7.09833L22.8586 7.48995C23.3533 7.56062 23.8243 7.25523 23.9616 6.77472ZM26.5 14C25.3955 14 24.5 13.1046 24.5 12C24.5 10.8954 25.3955 10 26.5 10C27.6046 10 28.5 10.8954 28.5 12C28.5 13.1046 27.6046 14 26.5 14ZM22.5 12C22.5 9.79086 24.2909 8 26.5 8C28.7092 8 30.5 9.79086 30.5 12C30.5 14.2091 28.7092 16 26.5 16C24.2909 16 22.5 14.2091 22.5 12Z" fill="#3F3F46"/>
<path d="M4.58967 46.168C2.58767 46.168 1.07567 45.202 0.739672 43.536L1.88767 43.298C2.19567 44.544 3.17567 45.202 4.60367 45.202C6.00367 45.202 6.85767 44.53 6.85767 43.424C6.85767 42.192 5.62567 41.898 4.26767 41.576C2.75567 41.212 1.04767 40.778 1.04767 38.888C1.04767 37.25 2.34967 36.158 4.29567 36.158C6.05967 36.158 7.44567 36.872 7.90767 38.552L6.87167 38.804C6.46567 37.642 5.69567 37.124 4.36567 37.124C3.06367 37.124 2.20967 37.782 2.20967 38.832C2.20967 39.994 3.38567 40.26 4.70167 40.554C6.24167 40.918 8.04767 41.352 8.04767 43.354C8.04767 45.076 6.68967 46.168 4.58967 46.168ZM16.1742 42.57L16.1602 42.836H10.5322C10.6022 44.306 11.5682 45.244 12.8702 45.244C13.7942 45.244 14.5362 44.768 14.9002 43.956L15.9362 44.124C15.4462 45.384 14.2982 46.14 12.8702 46.14C10.8262 46.14 9.42623 44.726 9.42623 42.612C9.42623 40.484 10.8402 39.07 12.8422 39.07C14.7602 39.07 16.1742 40.372 16.1742 42.57ZM12.8422 39.966C11.6102 39.966 10.7422 40.694 10.5602 41.982H15.0542C14.9142 40.722 14.0322 39.966 12.8422 39.966ZM21.1509 46H20.2269C19.0789 46 18.3649 45.286 18.3649 44.096V40.106H16.9789V39.21H17.7349C18.1969 39.21 18.4769 39.014 18.4769 38.37V36.97H19.4709V39.21H21.1509V40.106H19.4709V43.956C19.4709 44.698 19.9049 45.09 20.5629 45.09H21.1509V46ZM26.2232 46H25.2992C24.1512 46 23.4372 45.286 23.4372 44.096V40.106H22.0512V39.21H22.8072C23.2692 39.21 23.5492 39.014 23.5492 38.37V36.97H24.5432V39.21H26.2232V40.106H24.5432V43.956C24.5432 44.698 24.9772 45.09 25.6352 45.09H26.2232V46ZM28.3274 37.558C27.9074 37.558 27.5574 37.208 27.5574 36.788C27.5574 36.354 27.9074 36.018 28.3274 36.018C28.7474 36.018 29.0974 36.354 29.0974 36.788C29.0974 37.208 28.7474 37.558 28.3274 37.558ZM28.8734 46H27.7674V39.21H28.8734V46ZM34.147 39.07C35.757 39.07 36.639 39.98 36.639 41.52V46H35.519V41.716C35.519 40.568 34.875 39.98 33.839 39.98C32.789 39.98 31.991 40.694 31.991 42.094V46H30.885V39.21H31.991V40.162C32.439 39.476 33.195 39.07 34.147 39.07ZM43.9302 40.526V39.21H45.0502V45.958C45.0502 48.31 43.7482 49.5 41.6902 49.5C39.9822 49.5 38.8902 48.66 38.4142 47.386L39.3522 46.994C39.7582 48.016 40.5282 48.618 41.6622 48.618C43.1462 48.618 43.9302 47.638 43.9302 46.042V44.544C43.5242 45.398 42.5722 45.986 41.4242 45.986C39.6322 45.986 38.2602 44.572 38.2602 42.514C38.2602 40.47 39.6322 39.07 41.4382 39.07C42.5862 39.07 43.5102 39.658 43.9302 40.526ZM41.6622 45.062C43.0202 45.062 43.9862 43.998 43.9862 42.514C43.9862 41.044 43.0202 39.98 41.6622 39.98C40.3042 39.98 39.3242 41.044 39.3242 42.514C39.3242 43.998 40.3182 45.062 41.6622 45.062ZM49.5225 46.14C48.0665 46.14 46.9465 45.398 46.7225 44.18L47.6745 43.928C47.8565 44.796 48.5565 45.3 49.4945 45.3C50.3625 45.3 50.9645 44.866 50.9645 44.166C50.9645 43.312 50.1385 43.116 49.2285 42.934C47.9545 42.696 46.9045 42.318 46.9045 41.044C46.9045 39.826 47.8845 39.07 49.3545 39.07C50.6285 39.07 51.6785 39.672 51.9305 40.834L50.9365 41.03C50.7685 40.316 50.1665 39.91 49.3265 39.91C48.4865 39.91 47.9125 40.302 47.9125 40.946C47.9125 41.674 48.7105 41.884 49.6345 42.066C50.9645 42.346 52.0285 42.696 52.0285 44.068C52.0285 45.426 50.9225 46.14 49.5225 46.14Z" fill="#51525C"/>
</svg>
