<svg width="24" height="24" viewBox="0 0 24 24" fill="none" xmlns="http://www.w3.org/2000/svg">
<g clip-path="url(#clip0_59_1371)">
<path fill-rule="evenodd" clip-rule="evenodd" d="M2.00034 11.017C1.99349 10.6143 2.22884 10.2469 2.59745 10.0847L20.2751 2.30652C20.6526 2.14042 21.0933 2.2231 21.385 2.51472C21.6766 2.80634 21.7593 3.24708 21.5932 3.62457L13.815 21.3022C13.6528 21.6708 13.2853 21.9062 12.8827 21.8994C12.48 21.8925 12.1208 21.6448 11.9712 21.2709L9.30195 14.5977L2.6288 11.9285C2.25489 11.7789 2.00718 11.4197 2.00034 11.017ZM11.2446 14.0693L12.9436 18.3167L17.6158 7.69814L11.2446 14.0693ZM16.2016 6.28393L9.83042 12.6551L5.58299 10.9561L16.2016 6.28393Z" fill="black"/>
</g>
<defs>
<clipPath id="clip0_59_1371">
<rect width="24" height="24" fill="white"/>
</clipPath>
</defs>
</svg>
